<svg xmlns="http://www.w3.org/2000/svg" width="382" height="120" viewBox="0 0 382 120">
  <defs>
    <linearGradient id="a" x1="22.94%" x2="75.423%" y1="8.811%" y2="88.19%">
      <stop stop-color="#51ADE5" offset="0%"/>
      <stop stop-color="#346DBF" offset="10%"/>
      <stop stop-color="#8E1A8F" offset="25%"/>
      <stop stop-color="#C2202C" offset="37%"/>
      <stop stop-color="#ED0D79" offset="51%"/>
      <stop stop-color="#F14721" offset="61%"/>
      <stop stop-color="#F9A727" offset="73%"/>
      <stop stop-color="#F3EF14" offset="81%"/>
      <stop stop-color="#7FCC2A" offset="89%"/>
      <stop stop-color="#1F6633" offset="98%"/>
      <stop stop-color="#1F6633" offset="100%"/>
    </linearGradient>
  </defs>
  <g fill="none" fill-rule="evenodd" transform="translate(1 1)">
    <path fill="#FFFFFF" d="M139.660532,63.1864894 C139.660532,71.7310282 143.248653,76.0032979 150.424894,76.0032979 C151.653945,76.0086506 152.880243,75.8866517 154.084149,75.6392553 C155.506457,75.3184761 156.908579,74.9139777 158.283191,74.4278723 C159.594685,77.268374 160.490948,80.2826909 160.944468,83.3782979 C159.777021,83.8218442 158.689078,84.1837941 157.680638,84.4641489 C156.727519,84.7313926 155.759171,84.9409913 154.780851,85.0918085 C153.851915,85.2340782 152.935532,85.3345038 152.031702,85.3930851 C151.127872,85.4516665 150.190568,85.4809574 149.219787,85.4809574 C146.125531,85.5435684 143.05074,84.9777213 140.181489,83.8176596 C137.686678,82.7839381 135.455894,81.203084 133.65383,79.1918085 C131.854239,77.1362918 130.505101,74.7266578 129.693298,72.1180851 C128.782797,69.2229262 128.333754,66.2024777 128.36266,63.1676596 C128.335741,60.1178805 128.806387,57.0841248 129.756064,54.1858511 C130.609739,51.5571258 131.974945,49.1232189 133.773085,47.0242553 C135.559862,44.9854519 137.782186,43.3744819 140.275638,42.3105319 C143.054816,41.1401185 146.047762,40.5629074 149.062872,40.6158511 C150.906052,40.607825 152.746877,40.7484581 154.567447,41.036383 C156.557456,41.3933455 158.503739,41.9614494 160.373298,42.7310638 C160.283891,44.3762752 159.96488,46.0009046 159.425532,47.557766 C158.964943,48.9495836 158.419962,50.312038 157.793617,51.6375532 C156.986028,51.3571986 156.249574,51.1145036 155.584255,50.9094681 C154.918936,50.7044326 154.291277,50.5433334 153.701277,50.4261702 C153.098723,50.3048227 152.494078,50.2148581 151.88734,50.1562766 C151.280603,50.0976951 150.636206,50.0684043 149.954149,50.0684043 C146.690319,50.0684043 144.160851,51.1668085 142.365745,53.363617 C140.570638,55.5604255 139.673085,58.8347163 139.673085,63.1864894 L139.660532,63.1864894 Z M189.258191,62.1571277 C189.237156,63.7428638 189.054185,65.3223038 188.712128,66.8708511 L177,66.8708511 L177,75.457234 L192.170532,75.457234 C192.513174,76.9653356 192.696203,78.5053008 192.716596,80.0517021 C192.703065,81.6586387 192.52003,83.2596639 192.170532,84.8281915 L166.329787,84.8281915 L166.329787,41.3564894 L191.844149,41.3564894 C192.00734,42.2435815 192.128688,43.07 192.208191,43.8357447 C192.285475,44.5591953 192.32528,45.2861598 192.327447,46.0137234 C192.301865,47.6166979 192.140185,49.2146036 191.844149,50.7902128 L177,50.7902128 L177,57.4434043 L188.668191,57.4434043 C189.005753,58.9927032 189.188672,60.5716874 189.214255,62.1571277 L189.258191,62.1571277 Z M198.164681,41.4820213 C199.051773,41.3188298 199.85727,41.1974823 200.58117,41.1179787 C201.283516,41.0394171 201.989657,40.999605 202.696383,40.9987234 C203.454093,41.0009476 204.210898,41.0512615 204.962234,41.1493617 C205.748901,41.2497872 206.424681,41.3606738 206.989574,41.4820213 L221.017766,65.1824468 L221.017766,41.4757447 C222.068049,41.3125532 223.013723,41.1912057 223.854787,41.1117021 C224.695851,41.0321986 225.461596,40.9924468 226.152021,40.9924468 C226.879595,40.9942633 227.606578,41.0340692 228.33,41.1117021 C229.095745,41.1912057 229.901241,41.3125532 230.746489,41.4757447 L230.683723,84.6461702 C230.108306,84.8045124 229.523402,84.9261051 228.932553,85.0102128 C228.101785,85.1370163 227.262286,85.1978798 226.421915,85.192234 C225.51153,85.1996982 224.602211,85.1282962 223.704149,84.9788298 C222.89656,84.8365601 222.312837,84.725674 221.952979,84.6461702 L207.924787,61.0712766 L207.924787,84.6524468 C206.334123,84.9964557 204.712858,85.1793997 203.085532,85.1985106 C201.439697,85.1768495 199.799947,84.9939539 198.189787,84.6524468 L198.189787,41.4820213 L198.164681,41.4820213 Z M245.954681,50.7902128 L235.855638,50.7902128 C235.50997,49.2210434 235.326982,47.6204205 235.309574,46.0137234 C235.336453,44.447028 235.519378,42.8869095 235.855638,41.3564894 L266.755319,41.3564894 C266.918511,42.2435815 267.039858,43.07 267.119362,43.8357447 C267.196345,44.5592195 267.23615,45.2861684 267.238617,46.0137234 C267.211541,47.6166102 267.049874,49.2143902 266.755319,50.7902128 L256.65,50.7902128 L256.65,84.6461702 C254.893686,84.9731068 253.113558,85.1557381 251.327447,85.192234 C249.522294,85.1613381 247.722938,84.9786729 245.948404,84.6461702 L245.948404,50.7902128 L245.954681,50.7902128 Z M288.145957,85.4935106 C285.365614,85.5822234 282.594491,85.1303173 279.986383,84.1628723 C277.978024,83.3766842 276.223858,82.0545469 274.914894,80.3404255 C273.604698,78.5317542 272.70699,76.4578138 272.285,74.2646809 C271.755283,71.6180199 271.502855,68.9233569 271.531809,66.2243617 L271.531809,41.4820213 C272.699255,41.3188298 273.707695,41.2079432 274.557128,41.1493617 C275.40656,41.0907802 276.212057,41.0614894 276.973617,41.0614894 C277.655674,41.0614894 278.410957,41.0907802 279.239468,41.1493617 C280.061702,41.2121277 281.059681,41.3188298 282.233404,41.4820213 L282.233404,64.9376596 C282.219104,66.6543939 282.300827,68.370584 282.478191,70.0781915 C282.57986,71.2672737 282.876743,72.4314818 283.356915,73.5240426 C283.719653,74.3361675 284.348422,75.0003613 285.139468,75.4070213 C286.088054,75.8289981 287.121156,76.0265979 288.158511,75.9844681 C289.207878,76.0243879 290.252727,75.827004 291.215213,75.4070213 C292.019236,75.0077689 292.660196,74.3424127 293.029149,73.5240426 C293.504222,72.4315383 293.790725,71.2664276 293.876489,70.0781915 C294.018759,68.6680494 294.089894,66.9545388 294.089894,64.9376596 L294.089894,41.4757447 C295.299185,41.3125532 296.315993,41.2016666 297.140319,41.1430851 C297.964645,41.0845036 298.719929,41.0552128 299.40617,41.0552128 C300.134255,41.0552128 300.91883,41.0865957 301.76617,41.1430851 C302.613511,41.1995745 303.649149,41.3125532 304.791489,41.4757447 L304.791489,66.2055319 C304.817876,68.9047248 304.56335,71.5993383 304.032021,74.2458511 C303.608666,76.4385622 302.711082,78.512217 301.402128,80.3215957 C300.084461,82.0472284 298.316684,83.3763182 296.292979,84.1628723 C293.684871,85.1303173 290.913747,85.5822234 288.133404,85.4935106 L288.145957,85.4935106 Z M311.771064,41.4757447 C313.7461,41.2748936 315.570496,41.0824113 317.244255,40.8982979 C319.001814,40.7128965 320.768123,40.6228001 322.535426,40.6284043 C324.765886,40.6278292 326.991413,40.8379828 329.18234,41.2560638 C331.272979,41.6345513 333.279402,42.3827092 335.107447,43.4654255 C336.849802,44.526044 338.303028,46.0008315 339.337872,47.758617 C340.500216,49.8685657 341.064473,52.2558075 340.969787,54.6628723 C340.986256,56.019321 340.813019,57.3714126 340.455106,58.6798936 C340.146502,59.7901588 339.699446,60.8571892 339.124468,61.8558511 C338.618713,62.7310404 338.009709,63.5423428 337.310532,64.2723404 C336.701518,64.9055466 336.044725,65.4909948 335.345957,66.0235106 L344.760851,84.6461702 C343.794255,84.8093617 342.735603,84.930709 341.584894,85.0102128 C340.434185,85.0897165 339.388085,85.1294681 338.446596,85.1294681 C337.639007,85.1294681 336.701702,85.0897165 335.634681,85.0102128 C334.690904,84.9455582 333.751892,84.8239899 332.822766,84.6461702 L324.236383,64.8748936 L324.782447,64.573617 C325.372515,64.2505562 325.911807,63.8423855 326.382979,63.362234 C327.003229,62.7515732 327.550834,62.0712807 328.014894,61.3348936 C328.5321,60.508917 328.953269,59.6265672 329.270213,58.705 C329.61357,57.7334268 329.787657,56.7101375 329.784894,55.6796809 C329.784894,53.6669858 329.22,52.2024468 328.090213,51.2860638 C326.908494,50.3413629 325.428385,49.849477 323.916277,49.8989362 C323.572117,49.8960169 323.22817,49.9169892 322.886915,49.9617021 C322.700718,49.9790796 322.51734,50.0191277 322.340851,50.0809574 L322.340851,84.665 C320.605244,84.9889872 318.84621,85.1716079 317.081064,85.2110638 C315.27591,85.1801974 313.476551,84.9975322 311.702021,84.665 L311.702021,41.4820213 L311.771064,41.4757447 Z M368.47383,41.4820213 C369.402766,41.3188298 370.371454,41.1974823 371.379894,41.1179787 C372.388334,41.0384752 373.415603,40.9987234 374.461702,40.9987234 C375.147943,40.9987234 376.035036,41.0489362 377.122979,41.1493617 C378.210922,41.2497872 379.137766,41.3606738 379.903511,41.4820213 L366.509255,69.2308511 L366.509255,84.6461702 C364.75293,84.9730233 362.972809,85.155654 361.186702,85.192234 C359.381546,85.1613971 357.582186,84.9787319 355.80766,84.6461702 L355.80766,69.2308511 C354.76156,67.0507804 353.663156,64.7828367 352.512447,62.4270213 L349.066596,55.3532979 C347.915887,52.9932979 346.775638,50.63539 345.645851,48.2795745 C344.516064,45.9237589 343.428121,43.6558156 342.382021,41.4757447 C343.06617,41.3564894 343.995106,41.2435106 345.162553,41.1430851 C346.33,41.0426596 347.440957,40.9924468 348.489149,40.9924468 C349.326028,40.9924468 350.263334,41.0426596 351.301064,41.1430851 C352.338794,41.2435106 353.23844,41.3564894 354,41.4820213 L361.437766,58.2907447 L368.561702,41.4820213 L368.47383,41.4820213 Z M130.402553,101.73734 L131.733191,101.73734 L131.733191,91.0671277 L130.402553,91.0671277 L130.402553,101.73734 L130.402553,101.73734 Z M144.970532,101.73734 L138.750426,93.2262766 L138.750426,101.73734 L137.419787,101.73734 L137.419787,91.0671277 L138.781809,91.0671277 L144.926596,99.4024468 L144.926596,91.0420213 L146.244681,91.0420213 L146.244681,101.712234 L144.989362,101.712234 L144.970532,101.73734 Z M154.59883,101.712234 L154.59883,92.2282979 L151.222021,92.2282979 L151.222021,91.0420213 L159.3,91.0420213 L159.3,92.2282979 L155.910638,92.2282979 L155.910638,101.712234 L154.58,101.712234 L154.59883,101.712234 Z M164.252234,101.712234 L164.252234,91.0420213 L171.244362,91.0420213 L171.244362,92.2282979 L165.595426,92.2282979 L165.595426,95.6678723 L171.143936,95.6678723 L171.143936,96.8541489 L165.595426,96.8541489 L165.595426,100.532234 L171.244362,100.532234 L171.244362,101.718511 L164.258511,101.718511 L164.252234,101.712234 Z M176.378617,101.718511 L176.378617,91.0482979 L177.702979,91.0482979 L177.702979,100.532234 L182.648936,100.532234 L182.648936,101.718511 L176.37234,101.718511 L176.378617,101.718511 Z M187.450532,101.718511 L187.450532,91.0482979 L188.774894,91.0482979 L188.774894,100.532234 L193.733404,100.532234 L193.733404,101.718511 L187.456809,101.718511 L187.450532,101.718511 Z M198.710745,101.718511 L200.041383,101.718511 L200.041383,91.0482979 L198.717021,91.0482979 L198.717021,101.718511 L198.710745,101.718511 Z M205.30117,96.3896809 C205.24841,94.9163981 205.808344,93.4870867 206.847802,92.4416814 C207.887261,91.3962761 209.313355,90.8281984 210.786915,90.8725532 C212.405165,90.8347028 213.944271,91.5716084 214.929468,92.8559574 L213.875,93.5212766 C213.123823,92.5859559 211.986514,92.0450401 210.786915,92.0525532 C208.452021,92.0525532 206.675745,93.8288298 206.675745,96.3896809 C206.613533,97.5180521 207.019258,98.6221593 207.797291,99.4417665 C208.575324,100.261374 209.656835,100.723973 210.786915,100.720532 C211.857069,100.714778 212.8849,100.301851 213.661596,99.5656383 L213.661596,97.412766 L209.983511,97.412766 L209.983511,96.232766 L215.004787,96.232766 L215.004787,100.067766 C213.949054,101.273742 212.421059,101.960996 210.818298,101.950745 C209.342967,101.989787 207.917093,101.417382 206.878276,100.369057 C205.83946,99.3207318 205.28007,97.8897006 205.332553,96.4147872 L205.30117,96.3896809 Z M220.308511,101.712234 L220.308511,91.0420213 L227.300638,91.0420213 L227.300638,92.2282979 L221.651702,92.2282979 L221.651702,95.6678723 L227.212766,95.6678723 L227.212766,96.8541489 L221.664255,96.8541489 L221.664255,100.532234 L227.313191,100.532234 L227.313191,101.718511 L220.308511,101.718511 L220.308511,101.712234 Z M240.155106,101.718511 L233.935,93.2074468 L233.935,101.718511 L232.610638,101.718511 L232.610638,91.0482979 L233.97266,91.0482979 L240.117447,99.383617 L240.117447,91.0420213 L241.441809,91.0420213 L241.441809,101.712234 L240.186489,101.712234 L240.155106,101.718511 Z M249.795957,101.712234 L249.795957,92.2282979 L246.419149,92.2282979 L246.419149,91.0420213 L254.509681,91.0420213 L254.509681,92.2282979 L251.120319,92.2282979 L251.120319,101.712234 L249.808511,101.712234 L249.795957,101.712234 Z M266.64234,101.712234 L266.64234,91.0420213 L267.966702,91.0420213 L267.966702,100.525957 L272.925213,100.525957 L272.925213,101.712234 L266.648617,101.712234 L266.64234,101.712234 Z M277.902553,101.712234 L277.902553,91.0420213 L284.894681,91.0420213 L284.894681,92.2282979 L279.245745,92.2282979 L279.245745,95.6678723 L284.794255,95.6678723 L284.794255,96.8541489 L279.245745,96.8541489 L279.245745,100.532234 L284.894681,100.532234 L284.894681,101.718511 L277.883723,101.718511 L277.902553,101.712234 Z M294.202872,92.4103191 L291.949574,98.1659574 L296.475,98.1659574 L294.202872,92.4103191 L294.202872,92.4103191 L294.202872,92.4103191 Z M297.799362,101.718511 L296.857872,99.3334043 L291.547872,99.3334043 L290.606383,101.718511 L289.087447,101.718511 L293.386915,91.0482979 L295,91.0482979 L299.286915,101.718511 L297.767979,101.718511 L297.799362,101.718511 Z M310.145426,94.2681915 C310.159646,93.7045576 309.934072,93.1613534 309.52477,92.7735941 C309.115468,92.3858341 308.560873,92.1899303 307.99883,92.2345745 L305.230851,92.2345745 L305.230851,96.3143617 L308.030213,96.3143617 C308.593007,96.3532722 309.14622,96.153706 309.554563,95.7644666 C309.962906,95.3752267 310.18873,94.8322032 310.176809,94.2681915 L310.176809,94.2681915 L310.145426,94.2681915 Z M310.06383,101.712234 L307.358617,97.4755319 L305.230851,97.4755319 L305.230851,101.680851 L303.900213,101.680851 L303.900213,91.0106383 L308.180851,91.0106383 C310.132872,91.0106383 311.53883,92.2659574 311.53883,94.2242553 C311.61731,95.8471288 310.374041,97.2304057 308.752021,97.3248936 L311.632979,101.674574 L310.06383,101.674574 L310.06383,101.712234 Z M324.374468,101.674574 L318.154362,93.1635106 L318.154362,101.674574 L316.823723,101.674574 L316.823723,91.0043617 L318.223404,91.0043617 L324.361915,99.3396809 L324.361915,91.0420213 L325.686277,91.0420213 L325.686277,101.712234 L324.430957,101.712234 L324.374468,101.674574 Z M331.397979,101.712234 L332.659574,101.712234 L332.659574,91.0420213 L331.335213,91.0420213 L331.335213,101.712234 L331.335213,101.712234 L331.397979,101.712234 Z M345.965957,101.712234 L339.745851,93.2011702 L339.745851,101.712234 L338.415213,101.712234 L338.415213,91.0420213 L339.777234,91.0420213 L345.915745,99.3773404 L345.915745,91.0420213 L347.246383,91.0420213 L347.246383,101.712234 L345.991064,101.712234 L345.965957,101.712234 Z M352.531277,96.3834043 C352.478516,94.9101215 353.03845,93.4808101 354.077909,92.4354048 C355.117368,91.3899995 356.543461,90.8219218 358.017021,90.8662766 C359.635491,90.8274019 361.175038,91.5645177 362.159574,92.8496809 L361.036064,93.5212766 C360.284298,92.5866996 359.147371,92.0459659 357.947979,92.0525532 C355.613085,92.0525532 353.836809,93.8288298 353.836809,96.3896809 C353.774597,97.5180521 354.180322,98.6221593 354.958355,99.4417665 C355.736388,100.261374 356.817899,100.723973 357.947979,100.720532 C359.020305,100.716373 360.050663,100.303332 360.828936,99.5656383 L360.828936,97.412766 L357.138298,97.412766 L357.138298,96.232766 L362.159574,96.232766 L362.159574,100.067766 C361.103842,101.273742 359.575846,101.960996 357.973085,101.950745 C356.497754,101.989787 355.07188,101.417382 354.033063,100.369057 C352.994247,99.3207318 352.434857,97.8897006 352.48734,96.4147872 L352.531277,96.3834043 Z M372.522234,94.5882979 L372.522234,91.6382979 L371.323404,94.5506383 L371.197872,94.5506383 L369.973936,91.6382979 L369.973936,94.5506383 L369.528298,94.5506383 L369.528298,91.0294681 L370.212447,91.0294681 L371.235532,93.5903191 L372.258617,91.0294681 L372.949043,91.0294681 L372.949043,94.5506383 L372.503404,94.5506383 L372.522234,94.5882979 Z M367.977979,91.4876596 L367.977979,94.5882979 L367.526064,94.5882979 L367.526064,91.4876596 L366.534362,91.4876596 L366.534362,91.0734043 L368.969681,91.0734043 L368.969681,91.4876596 L367.977979,91.4876596 L367.977979,91.4876596 Z"/>
    <path fill="url(#a)" d="M48.5431915,117.72383 C47.6274675,117.729361 46.7682757,117.281635 46.2482035,116.527907 C45.7281311,115.774179 45.6144992,114.812016 45.9446809,113.957872 L21.9115957,104.98234 C21.427854,106.08479 20.2895713,106.750694 19.0915149,106.632109 C17.8934586,106.513524 16.9078086,105.637391 16.6495796,104.4615 C16.3913506,103.285609 16.9192084,102.077105 17.9573404,101.467447 L6.14478723,78.3821277 C5.12290416,78.8390368 3.92667616,78.6386201 3.10951595,77.8735972 C2.29235573,77.1085744 2.01362168,75.9281356 2.40226495,74.8783894 C2.79090821,73.8286432 3.77113757,73.1143051 4.88946809,73.0658511 L4.88946809,72.5762766 L2.66755319,48.6498936 C1.23468836,48.2630653 0.360060173,46.8170364 0.682731919,45.3683747 C1.00540367,43.919713 2.41107212,42.9815924 3.87265957,43.2394681 L14.4361702,26.2487234 L15.4718085,23.8071277 C14.5418247,23.3026314 13.979754,22.3131017 14.0227012,21.2559631 C14.0656484,20.1988246 14.7061353,19.2581498 15.6739781,18.8307545 C16.6418208,18.4033591 17.7684953,18.5636627 18.5787234,19.2440426 L40.6911702,6.22010638 C40.3684543,5.56612766 40.3194604,4.81055569 40.5550164,4.12037667 C40.7905724,3.43019765 41.2912835,2.86223831 41.9464894,2.54202128 C42.6943226,1.78577263 43.8086791,1.52362571 44.8152317,1.86716361 C45.8217844,2.21070151 46.5433394,3.09944767 46.672766,4.15510638 L69.7141489,2.59851064 C70.0919937,1.11312909 71.6024377,0.21529335 73.0878191,0.593138368 C74.5732006,0.970983386 75.4710363,2.48142694 75.0931915,3.96680851 L97.35,18.6728723 C98.090708,17.8628091 99.2393802,17.5656372 100.280004,17.9148541 C101.320628,18.2640709 102.057504,19.194003 102.159608,20.2869006 C102.261712,21.3797982 101.709843,22.4301316 100.751915,22.9660638 L111.987021,40.7978723 C112.39486,40.5665629 112.855081,40.4434052 113.323936,40.4401064 C114.420251,40.4391158 115.422545,41.0591213 115.911161,42.0405291 C116.399778,43.0219369 116.290408,44.1954094 115.628845,45.0696185 C114.967281,45.9438276 113.867675,46.3679323 112.790426,46.1643617 L112.438936,70.9255319 L112.501702,70.9255319 C113.527747,70.8767967 114.497412,71.3964448 115.025022,72.2777912 C115.552632,73.1591376 115.552632,74.2592667 115.025022,75.1406131 C114.497412,76.0219594 113.527747,76.5416076 112.501702,76.4928723 C112.010864,76.4895815 111.529814,76.3552341 111.108298,76.1037234 L101.065745,95.9565957 C102.008951,96.4887149 102.557392,97.5200512 102.47122,98.5995704 C102.385048,99.6790903 101.679942,100.610363 100.664265,100.986115 C99.6485892,101.361867 98.5071563,101.113726 97.7391489,100.350213 L77.6540426,112.721383 C77.7002891,112.92739 77.7234466,113.137908 77.7230851,113.349043 C77.7272,114.692275 76.7704855,115.846407 75.449785,116.091438 C74.1290844,116.336469 72.822038,115.602334 72.3440426,114.347021 L51.2609574,114.510213 C51.4198898,115.323117 51.2038367,116.164349 50.6728571,116.800064 C50.1418774,117.435777 49.352575,117.798204 48.5243617,117.786596 M65.9042553,100.456915 L49.9742553,112.558191 C50.5626515,112.911426 50.9988447,113.470648 51.1981915,114.12734 L72.2624468,113.964149 C71.9692413,112.87433 72.3817335,111.716852 73.2980851,111.058085 L67.7370213,100.387872 C67.1386508,100.640615 66.4679156,100.662973 65.8540426,100.450638 M32.7324468,103.28766 L22.093617,103.501064 C22.1136197,103.6152 22.1261993,103.730512 22.1312766,103.846277 C22.12678,104.123681 22.0802219,104.398797 21.9931915,104.662234 L46.0576596,113.650319 L46.1078723,113.549894 L32.7512766,103.300213 M39.3479787,103.168404 L33.2659574,103.28766 L46.3024468,113.28 C46.8253069,112.569594 47.6548378,112.150168 48.5369149,112.150213 L48.643617,112.150213 L49.0767021,111.208723 L52.7673404,95.4230851 L44.5638298,101.605532 C45.115041,102.597193 45.0068775,103.824553 44.2907251,104.704524 C43.5745726,105.584496 42.3947724,105.93972 41.3118181,105.601438 C40.2288639,105.263157 39.461026,104.29955 39.3730851,103.168404 M57.1170213,94.5129787 L49.3968085,111.327979 L49.1834043,112.225532 C49.3511214,112.265271 49.5149615,112.319884 49.6729787,112.388723 L65.5276596,100.325106 C64.5543341,99.8672406 63.931407,98.8901009 63.9271277,97.8144681 C63.9297607,97.318735 64.0663909,96.8329384 64.3225532,96.4085106 L60.4624468,93.4396809 C59.9481612,94.2278424 59.0686462,94.7006998 58.1275532,94.695 C57.7814355,94.6946303 57.4385297,94.6286049 57.1170213,94.5004255 M74.9676596,110.486915 C76.1521147,110.49303 77.20267,111.248825 77.585,112.369894 L97.5696809,100.074043 C97.2600507,99.6993034 97.0563382,99.2485359 96.9796809,98.7685106 L69.0488298,99.3208511 C68.7924271,99.7141344 68.4404117,100.035915 68.0257447,100.256064 L73.5742553,110.888617 C73.9949077,110.641211 74.4733802,110.509143 74.961383,110.505745 M55.6796809,93.251383 L53.1690426,95.1343617 L49.7545745,109.752553 L56.8157447,94.3748936 C56.3350728,94.1199025 55.9399967,93.729192 55.6796809,93.251383 M29.3179787,100.657766 L21.9680851,102.848298 C22.0111163,102.960928 22.0467592,103.076243 22.0747872,103.193511 L32.3558511,102.986383 L29.3242553,100.664043 M39.0906383,97.7642553 L29.6757447,100.551064 L32.8140426,102.980106 L39.297766,102.848298 C39.3415298,101.792178 39.9816428,100.852697 40.9485106,100.425532 L39.0655319,97.7517021 M19.3695745,101.053191 C20.3982111,101.056884 21.3403678,101.629426 21.8174468,102.540745 L28.9978723,100.425532 L23.7882979,96.433617 C22.8124136,97.3519401 21.3196121,97.4414638 20.2409721,96.6463522 C19.1623321,95.8512406 18.8061921,94.3987823 19.3946809,93.1948936 L6.67829787,78.0682979 C6.59798312,78.1277165 6.51414154,78.1822137 6.42723404,78.2314894 L18.2397872,101.310532 C18.5933794,101.152992 18.9761982,101.071723 19.3632979,101.072021 M42.1096809,100.168191 C43.0040393,100.169414 43.8429562,100.601725 44.3629787,101.329362 L52.8740426,94.9460638 L53.2004255,93.5526596 L39.3919149,97.6575532 L41.2748936,100.312553 C41.5494861,100.216784 41.8377244,100.165919 42.1285106,100.161915 M29.8389362,84.5708511 L23.4995745,92.2157447 C24.1078269,92.6628197 24.5054812,93.3403374 24.599259,94.0893719 C24.6930366,94.8384064 24.4746858,95.5930472 23.9954255,96.1762766 L29.3744681,100.3 L38.877234,97.4755319 L29.8389362,84.5708511 M84.401383,87.615 L69.3689362,97.0612766 C69.4409432,97.3038281 69.4789649,97.5551945 69.4819149,97.8081915 C69.4801104,98.2166196 69.3879423,98.6195877 69.2120213,98.9881915 L96.9294681,98.4421277 L96.9294681,98.3228723 C96.9288944,97.7573034 97.1019759,97.2051939 97.4253191,96.7411702 L84.4076596,87.615 M35.4941489,77.7544681 L30.0523404,84.3135106 L39.203617,97.381383 L53.2882979,93.1948936 L54.3302128,88.7447872 L39.5990426,77.4469149 C39.1253701,78.0753076 38.4056233,78.4711938 37.6212749,78.5347569 C36.8369265,78.5983206 36.0628254,78.3234955 35.4941489,77.7795745 M77.6979787,82.9452128 L77.5347872,83.0770213 L68.7475532,95.9628723 C68.9643236,96.1988636 69.1384709,96.4707029 69.262234,96.7662766 L84.106383,87.4141489 L77.6917021,82.9201064 M94.0861702,81.5204255 L84.6712766,87.4267021 L97.6010638,96.4901064 C98.0240235,96.0046569 98.6036307,95.6826531 99.2392553,95.58 L94.0673404,81.5204255 M73.4361702,82.5309574 L60.537766,90.596383 C60.9885754,91.3832333 61.0098418,92.344949 60.5942553,93.1509574 L64.4794681,96.138617 C64.9384303,95.5201219 65.6357909,95.1225146 66.4018142,95.0425715 C67.167837,94.9626284 67.9322667,95.2076811 68.5090426,95.7180851 L76.8443617,83.4787234 C75.6254173,84.0073628 74.2027936,83.5997719 73.4487234,82.5058511 M99.71,95.5109574 C100.020351,95.5141799 100.327972,95.5693392 100.620106,95.6741489 L104.247979,77.0075532 C104.113228,77.0320489 103.976877,77.046733 103.84,77.0514894 C103.216373,77.0410564 102.61464,76.8198315 102.132766,76.4238298 L94.3748936,81.3007447 L99.5970213,95.5046809 L99.71,95.5046809 M105.86734,71.2519149 L105.641383,72.1808511 C106.426611,72.8416661 106.780643,73.8834103 106.560661,74.8858416 C106.34068,75.8882724 105.582969,76.6860471 104.593191,76.9573404 L101.009255,95.4042553 L110.844681,75.9091489 C109.817499,75.1491768 109.443998,73.7848583 109.940851,72.6076596 L105.86734,71.3021277 M55.5039362,92.893617 L53.5644681,93.4710638 L53.2820213,94.6698936 L55.5290426,92.9814894 L55.5290426,92.893617 M54.606383,88.9581915 L53.6397872,93.0881915 L55.4035106,92.567234 C55.3521272,92.3618745 55.3247455,92.1512458 55.3219149,91.9395745 C55.3184164,91.2437059 55.5759729,90.5718189 56.0437234,90.0565957 L54.606383,88.9581915 M17.8882979,71.9235106 L7.75787234,75.3191489 C7.92488879,76.2472032 7.60234282,77.195868 6.90425532,77.8297872 L19.532766,92.893617 C19.9026835,92.353681 20.4519613,91.9622926 21.0830851,91.7889362 L23.5937234,75.6329787 L21.9680851,73.2980851 C21.264795,73.7390775 20.4004424,73.8403277 19.6142748,73.5738097 C18.8281071,73.3072916 18.2035233,72.7012781 17.9134043,71.9235106 M21.8362766,91.6382979 C22.3272868,91.640361 22.8086543,91.7747969 23.2296809,92.0274468 L29.6506383,84.2821277 L23.8510638,76.0032979 L21.4345745,91.6947872 C21.5713357,91.6695892 21.7098256,91.6549014 21.8488298,91.6508511 M64.0212766,72.3314894 L58.441383,89.1778723 C59.2002893,89.2810797 59.8822562,89.6948065 60.3243617,90.3202128 L73.2855319,82.2234043 C72.832899,81.4118982 72.832899,80.4238465 73.2855319,79.6123404 L64.0212766,72.3314894 M55.6796809,84.3951064 L54.6942553,88.6129787 L56.2885106,89.8682979 C56.5443407,89.641822 56.840233,89.4651377 57.1609574,89.3473404 L55.6796809,84.4202128 M59.0753191,69.8898936 L55.8240426,83.7925532 L57.4685106,89.2531915 C57.6739529,89.202245 57.8845306,89.1748696 58.0961702,89.1715957 L58.1275532,89.1715957 L63.7764894,72.1494681 L60.537766,69.588617 C60.1514372,69.796206 59.7209623,69.9081296 59.2824468,69.915 L59.1004255,69.915 M47.5703191,62.6090426 L38.9902128,73.4361702 C40.198297,74.2656324 40.5457975,75.8955752 39.7810638,77.1456383 L54.4118085,88.3807447 L55.491383,83.7548936 L49.3528723,63.3371277 C48.6861806,63.3113566 48.0511063,63.0461855 47.5640426,62.5902128 M87.4643617,68.4588298 L78.3507447,81.8342553 C78.2481839,82.1289427 78.0976077,82.4046466 77.9051064,82.6502128 L84.4139362,87.2446809 L93.9857447,81.2254255 L89.4038298,68.7601064 C89.1982518,68.8095427 88.9876074,68.8348198 88.7761702,68.8354255 C88.3195648,68.8328754 87.8708202,68.7163742 87.4706383,68.4964894 M31.5398936,66.6135106 L24.9243617,68.9170213 L23.9075532,75.5388298 L29.8640426,84.0373404 L35.2807447,77.5096809 C34.7736415,76.9140966 34.542893,76.1314026 34.6458043,75.3559781 C34.7487156,74.580553 35.1756324,73.885142 35.8205319,73.4424468 L31.5461702,66.6009574 M51.5434043,62.4270213 C51.0599722,62.9672862 50.383873,63.2963216 49.6604255,63.3434043 L55.6169149,83.1460638 L58.7552128,69.8334043 C57.4396285,69.5856068 56.4873817,68.4355248 56.4893617,67.0968085 C56.4913876,66.8656729 56.5230283,66.6357505 56.5835106,66.4126596 L51.562234,62.4270213 M75.7585106,78.1624468 C77.2951788,78.1762559 78.5306583,79.4313906 78.5202128,80.9680851 L78.5202128,81.0810638 L87.2007447,68.3395745 C86.4497688,67.821471 86.0015377,66.9672508 86.0019149,66.0548936 L86.0019149,65.8665957 L65.9168085,66.7264894 L64.1656383,72.0176596 L73.4361702,79.3612766 C73.9564071,78.6135156 74.8099218,78.1680003 75.7208511,78.1687234 M91.4688298,66.6825532 C91.2485589,67.5978453 90.5801084,68.3395186 89.6925532,68.6534043 L94.2493617,81.0371277 L101.856596,76.2543617 C101.209267,75.6059881 100.922887,74.6803421 101.090975,73.7796927 C101.259063,72.8790433 101.860041,72.119004 102.69766,71.747766 L101.335638,69.8647872 L91.4751064,66.7264894 M24.5791489,69.0425532 L22.9221277,69.62 C23.1464859,70.0232299 23.2652376,70.4766455 23.2673404,70.9380851 C23.2636598,71.7873443 22.8703184,72.5879096 22.2003191,73.1097872 L23.631383,75.1559574 L24.5728723,69.0425532 M16.1873404,66.5319149 L7.2243617,74.1893617 C7.41655621,74.4446899 7.56308277,74.7313721 7.65744681,75.0367021 L17.7815957,71.6473404 C17.7230926,71.4113153 17.6956621,71.1686609 17.7,70.9255319 C17.700805,70.3929885 17.8555651,69.8720354 18.1456383,69.4254255 L16.1998936,66.5319149 M5.37904255,51.1354255 L5.20957447,72.5637234 L5.25978723,73.0784043 C5.93175288,73.1318589 6.5611181,73.4286873 7.02978723,73.9131915 L16.0178723,66.2369149 L6.01297872,51.1730851 L5.84978723,51.1730851 C5.69191869,51.1716512 5.5344498,51.156954 5.37904255,51.1291489 M37.3896809,72.9403191 C37.8461828,72.9436583 38.2947376,73.0601099 38.6952128,73.2792553 L47.3380851,62.3642553 C47.0666577,62.04631 46.8713149,61.6706506 46.7669149,61.2658511 L31.8474468,66.4879787 L36.0904255,73.2792553 C36.4906073,73.0593705 36.9393522,72.9428693 37.3959574,72.9403191 M107.499255,64.6489362 L105.94266,70.9631915 L110.091489,72.2938298 C110.404394,71.7211588 110.908753,71.276789 111.516277,71.0385106 L107.499255,64.6489362 M103.84,71.4967021 C104.382366,71.4963519 104.91283,71.6557096 105.365213,71.9548936 L105.559787,71.1828723 L101.862872,69.9965957 L103.030319,71.6347872 C103.293779,71.5478507 103.568881,71.5012953 103.846277,71.4967021 M65.5590426,66.7202128 L62.0190426,66.8708511 L62.0190426,67.0905319 C62.0172635,68.0023568 61.5695254,68.8556374 60.8202128,69.3752128 L63.8643617,71.7854255 L65.5402128,66.7202128 M112.093723,45.9132979 L107.580851,64.2095745 L111.811277,70.9631915 L112.1,70.9129787 L112.451489,46.0388298 C112.331389,46.003163 112.213938,45.9591188 112.1,45.9070213 M95.0464894,52.0078723 L89.7867021,53.0184043 L89.7867021,53.1 L101.530213,69.5635106 L105.622553,70.8753191 L107.248191,64.2723404 L100.224681,53.0246809 C99.6402438,54.0658058 98.4540927,54.6148584 97.2821412,54.3867413 C96.1101891,54.1586241 95.2165788,53.2047518 95.0653191,52.0204255 M89.7867021,53.6397872 L89.5481915,63.393617 C90.7414891,63.7324308 91.5660204,64.820709 91.5692553,66.0611702 C91.5651893,66.1663214 91.5547087,66.2711261 91.5378723,66.375 L101.053191,69.4003191 L89.7867021,53.6397872 M3.00021277,48.7189362 L4.88319149,69.3501064 L5.02755319,51.0538298 C3.96940041,50.7367228 3.20020473,49.8220703 3.06925532,48.7252128 L3.00021277,48.7252128 M25.7340426,61.6424468 L21.2839362,68.2768085 C21.8878535,68.450566 22.4146705,68.8246505 22.777766,69.3375532 L24.6607447,68.7098936 L25.7340426,61.6424468 M24.1648936,59.7155319 L16.4446809,66.2996809 L18.3276596,69.1680851 C18.9409205,68.3912679 19.934608,68.0189377 20.9073404,68.2014894 L25.8344681,60.8829787 L25.8344681,60.832766 C25.1502904,60.6841846 24.5473466,60.2829692 24.1460638,59.7092553 M26.2298936,60.8829787 L26.1420213,61.0085106 L24.9808511,68.5404255 L31.3829787,66.3247872 L27.7739362,60.5503191 C27.3671586,60.7778951 26.9093986,60.8988129 26.4432979,60.9018085 L26.2487234,60.9018085 M65.5841489,61.4353191 L61.717766,65.8289362 C61.8530571,66.0699342 61.9504389,66.3303244 62.0064894,66.6009574 L65.6908511,66.4440426 L67.1909574,61.9123404 L67.0968085,61.9123404 C66.5517144,61.9116921 66.0189457,61.7501148 65.5653191,61.4478723 M69.8020213,59.7657447 C69.5400437,60.864297 68.639624,61.6952627 67.523617,61.8684043 L66.017234,66.4252128 L86.0395745,65.5653191 C86.0725668,65.3782948 86.1251621,65.1952642 86.1964894,65.0192553 L69.7957447,59.7657447 M47.2,52.0643617 L29.1296809,57.4685106 C29.4082242,58.5720313 28.9730171,59.7325832 28.0375532,60.3808511 L31.6842553,66.2118085 L46.7480851,60.9457447 C46.6157393,60.1883388 46.8150619,59.4105709 47.2953785,58.8101752 C47.7756951,58.2097794 48.4907393,57.8445888 49.2587234,57.8074468 L47.2753191,52.0078723 M64.6489362,57.8451064 L52.215,60.2176596 C52.2363929,60.3379293 52.2489795,60.4596 52.2526596,60.5817021 C52.2521409,61.1529099 52.0745169,61.7099038 51.7442553,62.1759574 L56.6776596,66.08 C57.0490086,65.128443 57.9132101,64.4579186 58.927191,64.3346149 C59.9411719,64.2113106 60.9408875,64.6551745 61.5294681,65.49 L65.2954255,61.2093617 C64.3156791,60.3794609 64.0465669,58.9790331 64.6489362,57.8451064 M8.15957447,49.9114894 C7.74783462,50.5464597 7.09506659,50.9861715 6.35191489,51.1291489 L16.2375532,66.0235106 L23.957766,59.4268085 C23.5774896,58.7118738 23.5383201,57.8639705 23.8510638,57.1170213 L8.15957447,49.9114894 M89.385,53.1 L69.5321277,56.8973404 L69.1869149,57.2864894 C69.6188131,57.7874248 69.8570582,58.426457 69.8585106,59.0878723 C69.8642625,59.1924032 69.8642625,59.2971713 69.8585106,59.4017021 L86.3534043,64.6928723 C86.8979353,63.6432379 88.0660086,63.0745042 89.2280851,63.2931915 L89.4791489,53.2004255 L89.4101064,53.1 M111.064362,45.0534043 L100.394149,50.6207447 C100.665526,51.2845036 100.665526,52.0282624 100.394149,52.6920213 L107.373723,63.8392553 L111.830106,45.7626596 C111.532651,45.5763374 111.272888,45.3357377 111.064362,45.0534043 M56.1755319,51.7442553 L51.0098936,58.2656383 C51.5827702,58.6502653 51.9921686,59.2341613 52.1585106,59.9038298 L64.837234,57.4810638 C65.0113267,57.2394412 65.223271,57.0274967 65.4648936,56.8534043 L59.5648936,51.5810638 C58.6074572,52.4093994 57.2081205,52.4767748 56.1755319,51.7442553 M55.0080851,49.6855319 L47.5452128,51.9325532 L49.5851064,57.8074468 C49.991814,57.8198314 50.3906415,57.9227547 50.7525532,58.1087234 L55.9244681,51.5371277 C55.3914915,51.0613256 55.0631356,50.3978669 55.0080851,49.6855319 M40.8606383,39.0592553 L28.9351064,56.8785106 C28.979577,56.9705968 29.0193793,57.0648652 29.0543617,57.1609574 L47.1309574,51.7191489 L42.8628723,39.2601064 C42.6222036,39.3309311 42.3730734,39.368934 42.122234,39.3730851 C41.6847849,39.3698421 41.2544255,39.2622522 40.8669149,39.0592553 M69.0425532,57.0040426 L68.9546809,57.0040426 L68.998617,57.0417021 L69.0425532,56.9914894 M15.9362766,33.303617 L9.03202128,39.7685106 L6.52138298,45.7124468 C7.33400856,45.9161162 8.00983881,46.4784242 8.3578859,47.2404641 C8.70593298,48.002504 8.68838933,48.8814972 8.31021277,49.6290426 L23.9765957,56.8094681 C24.2357334,56.3313332 24.628248,55.9388185 25.106383,55.6796809 L16.7459574,44.5638298 C15.7282735,45.1307495 14.4650776,45.0031766 13.5812965,44.2442236 C12.6975154,43.4852707 12.3805337,42.2558557 12.7871682,41.1641932 C13.1938027,40.0725307 14.2378363,39.3500818 15.402766,39.3542553 L15.4592553,39.3542553 L15.9362766,33.3224468 M67.0968085,56.3010638 C67.6343136,56.3009394 68.1601191,56.4580264 68.6094681,56.7529787 L69.387766,56.6023404 L78.7587234,46.0074468 L74.277234,44.8525532 L66.5319149,47.5138298 L66.9085106,56.3010638 L67.1281915,56.3010638 M66.2118085,47.6205319 L60.5628723,49.5537234 C60.5412364,50.225033 60.2756977,50.8654498 59.8159574,51.3551064 L65.7975532,56.64 C66.039199,56.5061087 66.2993714,56.4088084 66.5695745,56.3512766 L66.1929787,47.6205319 M38.9148936,35.5255319 L27.3345745,55.491383 C27.9066717,55.6849265 28.4001984,56.059478 28.7405319,56.5584043 L40.5781915,38.9148936 C39.7955195,38.4014313 39.3237288,37.5286185 39.3228723,36.5925532 C39.3261628,36.3042748 39.3748815,36.0183176 39.467234,35.7452128 L38.9148936,35.5255319 M79.0851064,46.0953191 L69.9024468,56.4893617 L89.1967021,52.7987234 L85.6002128,47.7774468 L79.0851064,46.0953191 M18.8297872,30.5544681 L16.256383,32.977234 L15.7793617,39.3668085 C16.9212492,39.5018499 17.860737,40.3287849 18.1396153,41.4442983 C18.4184937,42.5598117 17.9786798,43.7315721 17.0346809,44.3880851 L25.3888298,55.5290426 C25.4578723,55.5290426 25.5331915,55.4851064 25.602234,55.46 L19.7147872,31.4771277 C19.351829,31.2428498 19.0487451,30.9268687 18.8297872,30.5544681 M26.4244681,55.3281915 C26.6251604,55.3292208 26.8251274,55.3523748 27.0207447,55.397234 L38.613617,35.4062766 L23.9765957,29.7573404 C23.8007454,30.5852522 23.2557742,31.2872084 22.4972854,31.6627826 C21.7387967,32.0383569 20.850161,32.0462673 20.0851064,31.6842553 L25.9097872,55.3784043 C26.0773656,55.3461707 26.2475453,55.3293628 26.4181915,55.3281915 M89.9059574,48.8758511 L89.8118085,52.7234043 L95.0339362,51.7254255 L95.0339362,51.6501064 C95.0370274,51.1716475 95.1646544,50.7022395 95.4042553,50.2880851 L89.9185106,48.8758511 M86.0960638,47.8904255 L89.4979787,52.6606383 L89.5921277,48.7879787 L86.0897872,47.8904255 M44.4006383,38.1742553 C44.0883831,38.6206589 43.6518732,38.9655018 43.1453191,39.1659574 L47.4196809,51.6312766 L54.9515957,49.3591489 C54.969401,48.8557862 55.1257801,48.3671015 55.4035106,47.9469149 L44.4006383,38.1742553 M99.5468085,42.8879787 L99.3898936,49.3591489 C99.7510985,49.6108201 100.047855,49.9441336 100.256064,50.3320213 L110.888617,44.7835106 C110.640378,44.3632108 110.508248,43.8845101 110.505745,43.396383 L110.505745,43.2582979 L99.5342553,42.8817021 M90.0503191,42.5553191 L89.8996809,48.5431915 L95.548617,49.9993617 C96.344131,48.8897481 97.8358142,48.5362434 99.0446809,49.1708511 L99.1953191,42.8942553 L90.037766,42.5804255 M57.7446809,46.6790426 C59.1747424,46.6790426 60.3704948,47.7660901 60.506383,49.1896809 L66.1553191,47.2564894 L65.9607447,42.6808511 L55.0018085,39.856383 L57.3931915,46.6853191 C57.5100864,46.6754456 57.627508,46.6733487 57.7446809,46.6790426 M84.5018085,42.3732979 C84.4304022,43.1123149 84.0637812,43.7912421 83.485,44.2562766 L85.7759574,47.463617 L89.5732979,48.442766 L89.7553191,42.5490426 L84.5394681,42.3732979 M44.808617,37.2641489 C44.7531843,37.4826523 44.6709656,37.6934693 44.5638298,37.8918085 L55.6420213,47.7021277 C56.0142813,47.256039 56.5169291,46.9377685 57.0793617,46.7920213 L54.606383,39.793617 L44.777234,37.2829787 M80.4659574,44.5638298 L79.3487234,45.8191489 L85.3052128,47.3506383 L83.2464894,44.4571277 C82.4083479,44.9984676 81.3409676,45.0370186 80.4659574,44.5575532 M66.2996809,42.7875532 L66.4879787,47.1811702 L73.7123404,44.7081915 L66.2996809,42.8252128 M79.1918085,43.1955319 L74.8358511,44.6893617 L79.0035106,45.7626596 L80.1835106,44.4257447 C79.7399392,44.1120485 79.3974825,43.6757983 79.1980851,43.1704255 M8.47968085,40.3145745 L4.93968085,43.6474468 C5.63474236,44.0923641 6.09502736,44.8242172 6.195,45.6434043 L6.25148936,45.6434043 L8.50478723,40.3082979 M65.8791489,32.3307447 L66.312234,42.448617 L74.2897872,44.5073404 L79.122766,42.8503191 C79.0505198,42.6078208 79.0124931,42.3564212 79.0097872,42.1034043 C78.9975849,41.2113657 79.4189943,40.36887 80.1401074,39.84363 C80.861221,39.31839 81.7923659,39.1757209 82.6376596,39.4609574 L88.6129787,23.9640426 C87.3942189,23.691424 86.5078512,22.6380597 86.4475532,21.3906383 L64.7995745,20.6123404 L53.6397872,28.5647872 L63.393617,28.8032979 C63.7921149,27.4244925 65.1745546,26.5755405 66.5845015,26.8437851 C67.9944483,27.1120297 68.9685615,28.4093197 68.8329061,29.8381313 C68.6972507,31.2669429 67.4964061,32.3577361 66.0611702,32.3558511 L65.8791489,32.3558511 M13.6202128,28.1630851 L4.19904255,43.3085106 C4.34833654,43.351479 4.49332009,43.4082117 4.63212766,43.4779787 L8.78723404,39.5864894 L13.6202128,28.1630851 M99.8292553,30.9185106 L99.5468085,42.5678723 L110.543404,42.9444681 C110.543404,42.8754255 110.543404,42.8126596 110.58734,42.743617 C110.67579,42.2600572 110.892571,41.8091546 111.215,41.4380851 L99.8355319,30.912234 M91.3244681,23.0288298 C91.10176,23.2849739 90.8336427,23.4977654 90.533617,23.6564894 L90.0691489,42.2352128 L99.2267021,42.5490426 L99.5154255,30.6235106 L91.3244681,23.0288298 M53.2004255,28.8723404 L51.562234,30.0397872 L54.8825532,39.5425532 L65.9544681,42.3921277 L65.521383,32.3495745 C64.7990403,32.2319111 64.1546812,31.8278907 63.7341136,31.2289361 C63.3135459,30.6299814 63.1523183,29.8867206 63.2869149,29.1673404 L53.2004255,28.8723404 M88.9079787,24.0142553 L82.9075532,39.5802128 C83.8844444,40.0200957 84.5217116,40.9821007 84.5457447,42.0531915 L89.7553191,42.2289362 L90.207234,23.8510638 C89.8840546,23.9817309 89.5390151,24.0498868 89.1904255,24.0519149 L88.9142553,24.0519149 M100.463191,23.1480851 C100.318698,23.206297 100.169646,23.2524822 100.017553,23.2861702 L99.8418085,30.5168085 L111.397021,41.2246809 C111.49327,41.1316746 111.59605,41.0456749 111.704574,40.9673404 L100.456915,23.1418085 M51.2923404,30.2406383 L44.4696809,35.105 C44.7521933,35.5474256 44.9024493,36.0613447 44.902766,36.5862766 C44.8978448,36.7062122 44.885266,36.825711 44.8651064,36.9440426 L54.5059574,39.4546809 L51.2923404,30.2406383 M16.1434043,24.0770213 L14.718617,26.3617021 L9.37095745,39.0341489 L15.9739362,32.8265957 L16.6643617,24.1397872 C16.4954205,24.1342409 16.3273423,24.1132311 16.162234,24.0770213 M42.1912766,29.9017021 L39.0906383,35.2493617 L39.592766,35.4439362 C40.0294935,34.4700386 40.9862041,33.833045 42.0531915,33.8057447 L42.185,29.8954255 M23.8510638,28.1442553 C23.9790034,28.4680223 24.0450054,28.8129356 24.0456383,29.1610638 L24.0456383,29.437234 L38.7768085,35.1489362 L42.2038298,29.236383 L42.2038298,28.6087234 L23.8510638,28.1442553 M42.9193617,28.6212766 L42.5239362,29.3054255 L42.3670213,33.8245745 C43.1063761,33.8996357 43.7847047,34.2681943 44.25,34.8476596 L51.1542553,29.9205319 L50.7651064,28.8158511 L42.9193617,28.6212766 M17.8569149,23.9389362 C17.5785948,24.0507404 17.2839201,24.1164593 16.9844681,24.1335106 L16.3191489,32.4939362 L18.6979787,30.2594681 C18.3600764,29.477953 18.4088864,28.5831045 18.8297872,27.8429787 L17.8694681,23.9326596 M89.2029787,18.4720213 C90.224452,18.4698507 91.1648712,19.0279356 91.6523537,19.9255842 C92.1398355,20.8232328 92.0958818,21.9158974 91.5378723,22.7714894 L99.5279787,30.1904255 L99.6974468,23.2861702 C99.6012655,23.2909748 99.5049047,23.2909748 99.4087234,23.2861702 C98.6691044,23.2878417 97.9592974,22.9947691 97.436307,22.4717784 C96.9133159,21.9487876 96.6202434,21.2389804 96.6219149,20.4993617 C96.626001,20.1998616 96.6790043,19.9030421 96.7788298,19.6206383 L86.3220213,16.8212766 L88.0920213,18.7042553 C88.4387423,18.554268 88.8126548,18.4773489 89.1904255,18.4782979 M51.1354255,28.8221277 L51.4680851,29.7259574 L52.6669149,28.8723404 L51.1417021,28.8346809 M50.1625532,20.0851064 C50.1844976,20.2137417 50.1970838,20.3437992 50.2002128,20.4742553 C50.198269,21.3795916 49.7556824,22.2272971 49.0139362,22.746383 L51.0224468,28.4831915 L53.1,28.5334043 L64.2409574,20.587234 L50.1625532,20.0851064 M46.1957447,22.978617 L43.1076596,28.3011702 L50.677234,28.4894681 L48.7314894,22.9284043 C47.9538323,23.3571546 47.0150294,23.3759306 46.2208511,22.978617 M44.6705319,20.0851064 L42.837766,20.0851064 L42.5615957,28.288617 L42.743617,28.288617 L45.9132979,22.8217021 C45.12414,22.3053954 44.651305,21.423558 44.6579787,20.4805319 C44.6528531,20.3485922 44.657048,20.2164553 44.6705319,20.0851064 M42.5176596,20.0851064 L29.2865957,20.2734043 L23.01,27.0270213 C23.2663542,27.2495284 23.479179,27.5176877 23.6376596,27.8178723 L42.2414894,28.2823404 L42.5176596,20.0851064 M28.8723404,20.2796809 L19.4197872,20.4114894 C19.8984353,21.6890413 19.3630007,23.1240064 18.1644681,23.7757447 L19.0682979,27.466383 C19.9495812,26.3133731 21.5729324,26.0391584 22.7840426,26.8387234 L28.8723404,20.2796809 M15.7542553,23.9514894 L15.5282979,24.4787234 L15.8358511,23.9765957 L15.7479787,23.9765957 M71.747766,15.6726596 L65.2012766,20.3424468 L86.4224468,21.1081915 C86.4615977,20.1638522 86.9798895,19.304766 87.7970213,18.8297872 L85.7257447,16.6267021 L77.0514894,14.2729787 L77.0514894,14.4801064 C77.0559294,15.7955859 76.1378932,16.934174 74.8513856,17.2087706 C73.5648775,17.4833673 72.2619748,16.8188238 71.7289362,15.6161702 M61.2281915,10.3124468 L49.1834043,18.3464894 C49.6296268,18.7145413 49.9499591,19.2125922 50.0997872,19.7712766 L64.6489362,20.292234 L71.6159574,15.3274468 C71.3571163,14.5385512 71.4776018,13.6742978 71.9423404,12.9862766 L61.2281915,10.3438298 M40.8292553,6.50882979 L18.8297872,19.4574468 C18.9998927,19.6463192 19.1434818,19.8574797 19.2565957,20.0851064 L29.1547872,19.9470213 L41.1932979,6.94819149 C41.0632948,6.81183759 40.9476187,6.66251029 40.8480851,6.50255319 M41.4380851,7.13021277 L29.5878723,19.9470213 L42.5239362,19.765 L42.9381915,7.78297872 C42.3843017,7.73027867 41.8592457,7.51150529 41.4318085,7.15531915 M44.4006383,7.53191489 C44.0464701,7.70529951 43.6588133,7.79953651 43.2645745,7.80808511 L42.8565957,19.733617 L44.7395745,19.733617 C44.992007,18.8425228 45.6724633,18.1361668 46.5535106,17.8506383 L44.4006383,7.53191489 M79.4428723,9.51531915 L85.9014894,16.3756383 L96.8918085,19.3632979 C96.9476909,19.2393753 97.012729,19.119789 97.086383,19.0055319 L79.4491489,9.51531915 M47.4385106,17.6748936 C47.9709497,17.6764101 48.4917058,17.8311117 48.938617,18.1205319 L60.8641489,10.2182979 L45.8191489,6.54021277 C45.6314996,6.71701556 45.4202742,6.86698552 45.1914894,6.98585106 C45.0470806,7.13066763 44.8871015,7.25907203 44.7144681,7.3687234 L46.8861702,17.7564894 C47.0659314,17.7200123 47.2488125,17.7010936 47.432234,17.7 M75.0492553,4.28691489 C75.0108633,4.4069361 74.9647384,4.52434492 74.9111702,4.63840426 L78.7524468,8.78723404 L95.0715957,17.5744681 L74.9864894,4.31202128 M74.2709574,11.7560638 C75.5966987,11.7566369 76.738517,12.6910904 77.0012766,13.9905319 L85.286383,16.2375532 L78.5515957,9.02574468 L73.4361702,6.27659574 L67.5298936,6.195 L61.6298936,10.1115957 L72.1808511,12.7038298 C72.7060182,12.0836981 73.4771601,11.7256677 74.2897872,11.7246809 M46.3401064,5.88117021 C46.2616909,6.01852696 46.1713804,6.14874211 46.0702128,6.27031915 L61.1842553,9.99861702 L66.9398936,6.17617021 L46.3338298,5.88117021 M73.5303191,5.96276596 L77.8297872,8.28510638 L74.6914894,4.93340426 C74.385774,5.39763777 73.9487735,5.76034797 73.4361702,5.97531915 L73.4361702,6.10085106 L73.5114894,5.95648936 M69.8459574,4.60702128 L67.9629787,5.86234043 L71.1012766,5.9062766 C70.5394723,5.63183127 70.0862826,5.17643087 69.8145745,4.61329787 M69.5823404,2.91861702 L46.7167021,4.47521277 L46.7167021,4.47521277 C46.7173793,4.83890741 46.6470198,5.19923346 46.5095745,5.53595745 L67.4231915,5.83095745 L69.7518085,4.28691489 C69.6481436,3.99881547 69.5929981,3.6955127 69.588617,3.3893617 C69.5910461,3.2250182 69.6078479,3.06120225 69.6388298,2.89978723"/>
    <path fill="#B6A188" d="M43.4152128,80.2462766 L42.8503191,80.2462766 C42.806383,79.9889362 42.7624468,79.7315957 42.7185106,79.4805319 L42.6808511,79.4303191 L42.2665957,79.3173404 L42.1912766,79.3173404 L42.0531915,79.5244681 L41.7142553,79.9324468 L41.268617,79.6751064 L41.268617,79.5935106 L41.4255319,78.9281915 L41.4255319,78.8465957 L41.1242553,78.5453191 L41.0426596,78.5453191 L40.3710638,78.7901064 L40.3082979,78.7901064 L40.0384043,78.3256383 L40.1074468,78.2691489 L40.6284043,77.8360638 L40.6284043,77.7607447 C40.5844681,77.6226596 40.5530851,77.4845745 40.5154255,77.3464894 L40.4652128,77.2962766 L39.6994681,77.1644681 L39.6994681,76.5744681 L40.4652128,76.4426596 L40.5154255,76.3924468 C40.5530851,76.2543617 40.5844681,76.1162766 40.6284043,75.9781915 L40.6284043,75.9028723 L40.383617,75.6957447 L40.0384043,75.4070213 L40.2894681,74.961383 L40.3710638,74.961383 L41.036383,75.2061702 L41.1179787,75.2061702 L41.4192553,74.9048936 L41.4192553,74.8232979 L41.1744681,74.1517021 L41.1744681,74.0889362 L41.6389362,73.8190426 L41.6954255,73.8880851 L42.1285106,74.4090426 L42.2101064,74.4090426 L42.6243617,74.2960638 L42.6745745,74.2458511 C42.7185106,73.9885106 42.7624468,73.7311702 42.806383,73.4801064 L43.3712766,73.4801064 C43.4152128,73.7374468 43.4591489,73.9947872 43.5093617,74.2521277 L43.5532979,74.2960638 L43.9675532,74.4090426 L44.0491489,74.4090426 L44.4947872,73.8755319 L44.5387234,73.8190426 L44.9780851,74.0701064 L44.9780851,74.1517021 L44.7332979,74.8170213 L44.7332979,74.9048936 L45.0220213,75.193617 L45.1224468,75.193617 L45.787766,74.9551064 L45.8505319,74.9551064 L46.1204255,75.4195745 L46.0576596,75.4697872 L45.5304255,75.9091489 L45.5304255,75.9970213 C45.5680851,76.1288298 45.6057447,76.2669149 45.6371277,76.3987234 L45.693617,76.4552128 L46.5346809,76.5744681 L46.5346809,77.1393617 L45.7689362,77.2711702 L45.7124468,77.321383 C45.6747872,77.4594681 45.6371277,77.5975532 45.5994681,77.7356383 L45.5994681,77.8109574 L45.8191489,77.9553191 L46.2334043,78.3005319 L45.9760638,78.7461702 L45.8944681,78.7461702 L45.1914894,78.532766 L45.103617,78.532766 C45.0073759,78.6331915 44.9111347,78.7294324 44.8148936,78.8214894 L44.8148936,78.9156383 L45.0596809,79.587234 L45.0596809,79.6437234 L44.6014894,79.913617 L44.545,79.8445745 L44.1056383,79.323617 L44.0365957,79.323617 L43.6097872,79.4428723 L43.5658511,79.4868085 C43.5219149,79.7441489 43.4717021,80.0014894 43.427766,80.2588298 M43.1453191,74.8546809 C42.0360494,74.8546809 41.1368085,75.7539218 41.1368085,76.8631915 C41.1368085,77.9724612 42.0360494,78.8717021 43.1453191,78.8717021 L43.1453191,78.8717021 C44.2545889,78.8717021 45.1538298,77.9724612 45.1538298,76.8631915 C45.1538298,75.7539218 44.2545889,74.8546809 43.1453191,74.8546809 L43.1453191,74.8546809"/>
    <path fill="#87BBE2" d="M70.6807447,39.592766 L70.21,39.592766 L70.0970213,38.9651064 L70.0593617,38.9148936 L69.7141489,38.8207447 L69.651383,38.8207447 L69.5258511,38.971383 L69.2371277,39.3103191 L68.8668085,39.0969149 L68.8668085,39.0278723 L69.0739362,38.4692553 L69.0739362,38.4002128 L68.8228723,38.1491489 L68.7538298,38.1491489 L68.1889362,38.35 L68.1010638,38.35 L67.8751064,37.9671277 L67.9315957,37.9231915 L68.3646809,37.5591489 L68.3646809,37.496383 C68.3332979,37.3771277 68.3019149,37.2641489 68.2705319,37.1511702 L68.2328723,37.107234 L67.6052128,36.9942553 L67.6052128,36.5235106 L68.2328723,36.4105319 L68.2768085,36.3665957 C68.2768085,36.2473404 68.3332979,36.1343617 68.3709574,36.021383 L68.3709574,35.958617 L68.1638298,35.7765957 L67.8751064,35.5380851 L68.0885106,35.167766 L68.1575532,35.167766 L68.7161702,35.3748936 L68.7852128,35.3748936 L69.0362766,35.1238298 L69.0362766,35.0547872 L68.8291489,34.4961702 L68.8291489,34.4145745 L69.2120213,34.188617 L69.2559574,34.2451064 L69.6702128,34.6844681 L69.7329787,34.6844681 L70.0781915,34.5903191 L70.1221277,34.546383 L70.2351064,33.9187234 L70.7058511,33.9187234 C70.7435106,34.1321277 70.7811702,34.3455319 70.8188298,34.546383 L70.8564894,34.577766 L71.2017021,34.6719149 L71.2707447,34.6719149 L71.6410638,34.2262766 L71.6787234,34.1823404 L72.0490426,34.3957447 L72.0490426,34.4647872 L71.8419149,35.0171277 L71.8419149,35.0861702 L72.0804255,35.3246809 L72.1620213,35.3246809 L72.7143617,35.1238298 L72.8085106,35.1238298 L73.0344681,35.5067021 L72.9842553,35.5506383 L72.5448936,35.9146809 L72.5448936,35.99 C72.5762766,36.1029787 72.6076596,36.2096809 72.632766,36.3289362 L72.6453191,36.4042553 L73.2729787,36.517234 L73.2729787,36.9879787 L72.6453191,37.0946809 L72.601383,37.138617 C72.601383,37.2515957 72.538617,37.3708511 72.507234,37.4838298 L72.507234,37.5465957 L72.6578723,37.6721277 L73.0030851,37.9608511 L72.7896809,38.3311702 L72.7206383,38.3311702 L72.1808511,38.1617021 L72.1055319,38.1617021 L71.8607447,38.4064894 L71.8607447,38.4818085 C71.9297872,38.6638298 71.9988298,38.8521277 72.0615957,39.0404255 L72.0615957,39.1031915 L71.6787234,39.3291489 L71.6347872,39.2726596 L71.2707447,38.8395745 L71.2142553,38.8395745 L70.8564894,38.9337234 L70.8251064,38.971383 C70.7874468,39.1847872 70.7497872,39.3981915 70.7121277,39.5990426 M70.473617,35.0924468 C69.5480702,35.0924468 68.797766,35.8427509 68.797766,36.7682979 C68.797766,37.6938449 69.5480702,38.4441489 70.473617,38.4441489 L70.473617,38.4441489 C71.3991638,38.4441489 72.1494681,37.6938449 72.1494681,36.7682979 C72.1494681,35.8427509 71.3991638,35.0924468 70.473617,35.0924468 L70.473617,35.0924468"/>
    <path fill="#7BB893" d="M77.9239362,64.9941489 L77.4531915,64.9941489 L77.3402128,64.3664894 L77.3025532,64.3225532 L76.9573404,64.2284043 L76.8945745,64.2284043 L76.7690426,64.3790426 L76.4803191,64.7179787 L76.11,64.5045745 L76.11,64.4418085 L76.3171277,63.8831915 L76.3171277,63.8141489 L76.0660638,63.5630851 L75.9970213,63.5630851 L75.4384043,63.7639362 L75.3191489,63.7639362 L75.0931915,63.3810638 L75.1496809,63.3371277 L75.582766,62.9730851 L75.582766,62.9040426 C75.551383,62.7910638 75.52,62.6718085 75.488617,62.5588298 L75.4446809,62.5148936 L74.8170213,62.4019149 L74.8170213,61.9311702 L75.4446809,61.8181915 L75.488617,61.7742553 C75.488617,61.6612766 75.5451064,61.5420213 75.582766,61.4290426 L75.582766,61.3662766 L75.3756383,61.1968085 L75.0869149,60.9582979 L75.3003191,60.5879787 L75.3693617,60.5879787 L75.9279787,60.7951064 L75.9970213,60.7951064 C76.078617,60.707234 76.1602128,60.6256383 76.2480851,60.5440426 L76.2480851,60.475 L76.0409574,59.9101064 L76.0409574,59.8159574 L76.4238298,59.59 L76.5242553,59.6276596 L76.8882979,60.0607447 L76.9573404,60.0607447 L77.3025532,59.9665957 L77.3464894,59.9226596 L77.4594681,59.295 L77.9302128,59.295 C77.9678723,59.5084043 78.0055319,59.7218085 78.0431915,59.9226596 L78.0808511,59.9603191 L78.4260638,60.0544681 L78.4951064,60.0544681 L78.8654255,59.6088298 L78.9030851,59.5648936 L79.2734043,59.7782979 L79.2734043,59.8473404 C79.2043617,60.0293617 79.1353191,60.2176596 79.0662766,60.4059574 L79.0662766,60.475 C79.1478723,60.5565957 79.2294681,60.6319149 79.3047872,60.7135106 L79.386383,60.7135106 L79.9387234,60.5126596 L79.9889362,60.5126596 L80.2148936,60.8955319 L80.1646809,60.9394681 L79.7253191,61.3035106 L79.7253191,61.3725532 C79.7587941,61.4855319 79.7880851,61.5985106 79.8131915,61.7114894 L79.8571277,61.7617021 L80.4847872,61.8746809 L80.4847872,62.3454255 L79.8571277,62.4584043 L79.8131915,62.5023404 C79.8131915,62.6153191 79.7504255,62.7345745 79.7190426,62.8475532 L79.7190426,62.9103191 L79.8696809,63.0358511 L80.2148936,63.3245745 L80.0014894,63.6948936 L79.9387234,63.6948936 L79.386383,63.4940426 L79.3110638,63.4940426 L79.0662766,63.7388298 L79.0662766,63.8141489 C79.1353191,63.9961702 79.2043617,64.1844681 79.2671277,64.372766 L79.2671277,64.4229787 L78.8842553,64.6489362 L78.8403191,64.5924468 L78.4762766,64.1593617 L78.4197872,64.1593617 L78.0620213,64.2535106 L78.0306383,64.2911702 C77.9929787,64.5045745 77.9553191,64.7179787 77.9176596,64.9188298 M77.6791489,60.412234 C76.7536021,60.412234 76.0032979,61.1625381 76.0032979,62.0880851 C76.0032979,63.0136319 76.7536021,63.7639362 77.6791489,63.7639362 L77.6791489,63.7639362 C78.6046957,63.7639362 79.355,63.0136319 79.355,62.0880851 C79.355,61.1625381 78.6046957,60.412234 77.6791489,60.412234"/>
    <path fill="#E08091" d="M77.9239362,98.6429787 L77.4531915,98.6429787 L77.3402128,98.0153191 L77.3025532,97.971383 L76.9573404,97.877234 L76.8945745,97.877234 L76.7690426,98.0278723 L76.4803191,98.3668085 L76.11,98.1534043 L76.11,98.0906383 L76.3171277,97.5320213 L76.3171277,97.4629787 L76.0660638,97.2119149 L75.9970213,97.2119149 L75.4384043,97.412766 L75.3191489,97.412766 L75.0931915,97.0298936 L75.1496809,96.9796809 L75.582766,96.6156383 L75.582766,96.5528723 C75.551383,96.4398936 75.52,96.3206383 75.488617,96.2076596 L75.4446809,96.1637234 L74.8170213,96.0507447 L74.8170213,95.58 L75.4446809,95.4670213 L75.488617,95.4230851 C75.488617,95.3101064 75.5451064,95.1908511 75.582766,95.0778723 L75.582766,95.0151064 L75.3756383,94.8456383 L75.0869149,94.6071277 L75.3003191,94.2368085 L75.3693617,94.2368085 L75.9279787,94.4439362 L75.9970213,94.4439362 L76.2480851,94.1928723 L76.2480851,94.1238298 L76.0409574,93.5589362 L76.0409574,93.4585106 L76.4238298,93.2388298 L76.467766,93.2953191 L76.8318085,93.7284043 L76.9008511,93.7284043 L77.2460638,93.6342553 L77.29,93.5903191 L77.4029787,92.9626596 L77.8737234,92.9626596 L77.9867021,93.5903191 L78.0243617,93.6217021 L78.3695745,93.7158511 L78.438617,93.7158511 L78.8089362,93.2702128 L78.8465957,93.2262766 L79.2169149,93.4396809 L79.2169149,93.5087234 C79.1478723,93.6907447 79.0788298,93.8790426 79.0097872,94.0610638 L79.0097872,94.1301064 C79.091383,94.2054255 79.1729787,94.2870213 79.2482979,94.368617 L79.3298936,94.368617 L79.882234,94.167766 L79.9324468,94.167766 L80.1584043,94.5506383 L80.1081915,94.5945745 L79.6688298,94.958617 L79.6688298,95.0276596 C79.7002128,95.1406383 79.7315957,95.253617 79.7567021,95.3665957 L79.8006383,95.4105319 L80.4282979,95.5235106 L80.4282979,96.0319149 L79.8006383,96.138617 L79.7567021,96.1825532 C79.7567021,96.2955319 79.6939362,96.4147872 79.6625532,96.527766 L79.6625532,96.5905319 L79.8131915,96.7160638 L80.1584043,97.0047872 L79.945,97.3751064 L79.882234,97.3751064 L79.3298936,97.1742553 L79.2545745,97.1742553 L79.0097872,97.4190426 L79.0097872,97.4943617 C79.0788298,97.676383 79.1478723,97.8646809 79.2106383,98.0529787 L79.2106383,98.1031915 L78.827766,98.3228723 L78.7838298,98.266383 L78.4197872,97.8332979 L78.3632979,97.8332979 L78.0055319,97.9274468 L77.9741489,97.9651064 C77.9364894,98.1785106 77.8988298,98.3919149 77.8611702,98.592766 M77.6854255,94.1489362 C76.7598787,94.1489362 76.0095745,94.8992404 76.0095745,95.8247872 C76.0095745,96.750334 76.7598787,97.5006383 77.6854255,97.5006383 L77.6854255,97.5006383 C78.6109723,97.5006383 79.3612766,96.750334 79.3612766,95.8247872 C79.3612766,94.8992404 78.6109723,94.1489362 77.6854255,94.1489362 L77.6854255,94.1489362"/>
    <path fill="#9DDBF3" d="M35.6259574,26.2361702 L35.1489362,26.2361702 C35.1112766,26.022766 35.073617,25.8093617 35.0359574,25.6085106 L34.9920213,25.5645745 L34.6468085,25.4704255 L34.5840426,25.4704255 L34.4585106,25.6210638 L34.1697872,25.96 L33.8057447,25.7340426 L33.8057447,25.6712766 L34.0128723,25.1126596 L34.0128723,25.043617 L33.7618085,24.7925532 L33.692766,24.7925532 L33.1278723,24.9996809 L33.04,24.9996809 L32.8203191,24.6168085 L32.8768085,24.5728723 L33.3098936,24.2088298 L33.3098936,24.1397872 C33.2785106,24.0268085 33.2471277,23.9075532 33.2157447,23.7945745 L33.1718085,23.7569149 L32.5441489,23.6439362 L32.5441489,23.1669149 L33.1718085,23.0539362 L33.2659574,23.0162766 C33.2952482,22.8991135 33.3266312,22.7840426 33.3601064,22.6710638 L33.3601064,22.6082979 L33.1529787,22.4325532 L32.8642553,22.1940426 L33.0776596,21.8237234 L33.1467021,21.8237234 L33.7053191,22.0308511 L33.7743617,22.0308511 L34.0254255,21.7797872 L34.0254255,21.7107447 L33.8182979,21.1458511 L33.8182979,21.0579787 L34.2011702,20.8382979 L34.251383,20.8947872 L34.5903191,21.3404255 L34.6593617,21.3404255 L35.0045745,21.2462766 L35.0485106,21.208617 C35.0861702,20.9952128 35.1238298,20.7818085 35.1614894,20.5809574 L35.632234,20.5809574 C35.6698936,20.7943617 35.7075532,21.007766 35.7452128,21.208617 L35.7765957,21.2525532 L36.1218085,21.3404255 L36.1908511,21.3404255 L36.5611702,20.8947872 L36.5988298,20.8508511 L36.9691489,21.0642553 L36.9691489,21.1332979 L36.7620213,21.6856383 L36.7620213,21.7546809 C36.843617,21.83 36.9252128,21.9115957 37.0005319,21.9931915 L37.0821277,21.9931915 L37.6595745,21.798617 L37.7097872,21.798617 L37.9357447,22.1814894 L37.8855319,22.2254255 L37.4461702,22.5894681 L37.4461702,22.6647872 C37.4775532,22.777766 37.5089362,22.8907447 37.5340426,22.9974468 L37.5842553,23.0476596 L38.2119149,23.1606383 L38.2119149,23.631383 L37.5842553,23.7443617 L37.5403191,23.7882979 L37.4461702,24.1335106 L37.4461702,24.1962766 L37.5968085,24.3218085 L37.9420213,24.6105319 L37.728617,24.9808511 L37.6595745,24.9808511 L37.107234,24.78 L37.0319149,24.78 L36.7871277,25.0247872 L36.7871277,25.1001064 L36.9879787,25.6587234 L36.9879787,25.7340426 L36.6051064,25.9537234 L36.5548936,25.897234 L36.1908511,25.4641489 L36.1343617,25.4641489 L35.7765957,25.5520213 L35.7452128,25.5896809 C35.7075532,25.8030851 35.6698936,26.0164894 35.632234,26.2173404 M35.3937234,21.7107447 C34.4681764,21.7107447 33.7178723,22.4610487 33.7178723,23.3865957 C33.7178723,24.3121427 34.4681764,25.0624468 35.3937234,25.0624468 L35.3937234,25.0624468 C36.3192704,25.0624468 37.0695745,24.3121427 37.0695745,23.3865957 C37.0695745,22.4610487 36.3192704,21.7107447 35.3937234,21.7107447 L35.3937234,21.7107447"/>
    <path fill="#FBC568" d="M16.9468085,85.6064894 L16.4760638,85.6064894 C16.4384043,85.3930851 16.4007447,85.1796809 16.3630851,84.9788298 L16.3191489,84.9223404 L15.9739362,84.8281915 L15.9111702,84.8281915 L15.7856383,84.9788298 L15.5031915,85.317766 L15.1328723,85.1043617 L15.1328723,85.0353191 L15.34,84.4767021 L15.34,84.4076596 L15.0889362,84.1565957 L15.0198936,84.1565957 L14.455,84.3637234 L14.3608511,84.3637234 L14.1348936,83.9808511 L14.191383,83.9369149 L14.6244681,83.5728723 L14.6244681,83.5038298 C14.5930851,83.3908511 14.5617021,83.2715957 14.5303191,83.158617 L14.486383,83.1146809 L13.8587234,83.0017021 L13.8587234,82.537234 L14.486383,82.4242553 L14.5303191,82.3803191 C14.5303191,82.2610638 14.5868085,82.1480851 14.6244681,82.0351064 L14.6244681,81.9723404 L14.4361702,81.8028723 L14.1411702,81.5957447 L14.3545745,81.2254255 L14.4173404,81.2254255 L14.9759574,81.4325532 L15.045,81.4325532 L15.2960638,81.1814894 L15.2960638,81.1124468 L15.0889362,80.5538298 L15.0889362,80.503617 L15.4718085,80.2839362 L15.5220213,80.3404255 L15.8860638,80.7735106 L15.9551064,80.7735106 L16.3003191,80.6793617 L16.3442553,80.6354255 C16.3819149,80.4220213 16.4195745,80.208617 16.457234,80.007766 L16.9468085,80.007766 L17.0597872,80.6354255 L17.0974468,80.6730851 L17.4426596,80.767234 L17.5117021,80.767234 L17.8820213,80.3215957 L17.9196809,80.2776596 L18.29,80.4910638 L18.29,80.5601064 L18.0828723,81.1187234 L18.0828723,81.187766 L18.321383,81.4262766 L18.4029787,81.4262766 L18.9553191,81.2254255 L19.0055319,81.2254255 L19.2314894,81.6082979 L19.1812766,81.652234 L18.7419149,82.0162766 L18.7419149,82.0853191 C18.7732979,82.1982979 18.8046809,82.305 18.8360638,82.4242553 L18.88,82.4744681 L19.5076596,82.5874468 L19.5076596,83.0581915 L18.88,83.1711702 L18.8297872,83.1648936 C18.8297872,83.2778723 18.7670213,83.3971277 18.7356383,83.5101064 L18.7356383,83.5728723 L18.8862766,83.6984043 L19.2314894,83.9871277 L19.0180851,84.3574468 L18.9490426,84.3574468 L18.3967021,84.1565957 L18.321383,84.1565957 L18.0765957,84.401383 L18.0765957,84.4767021 L18.2774468,85.0353191 L18.2774468,85.0855319 L17.8945745,85.3052128 L17.8443617,85.2487234 L17.4803191,84.8156383 L17.4238298,84.8156383 L17.0660638,84.9097872 L17.0346809,84.9474468 C16.9970213,85.1608511 16.9593617,85.3742553 16.9217021,85.5751064 M16.6831915,81.0685106 C15.7576445,81.0685106 15.0073404,81.8188149 15.0073404,82.7443617 C15.0073404,83.6699085 15.7576445,84.4202128 16.6831915,84.4202128 L16.6831915,84.4202128 C17.6087385,84.4202128 18.3590426,83.6699085 18.3590426,82.7443617 C18.3590426,81.8188149 17.6087385,81.0685106 16.6831915,81.0685106 L16.6831915,81.0685106"/>
    <path fill="#7BD3DD" d="M27.6170213,45.5304255 C27.620415,44.7105305 26.9597487,44.0424757 26.1398666,44.0367513 C25.3199845,44.031027 24.6500544,44.6897916 24.6419994,45.5096541 C24.6339444,46.3295166 25.290802,47.0013166 26.1106383,47.0117021 C26.5073285,47.0167273 26.8895916,46.8630866 27.1724638,46.584929 C27.455336,46.3067713 27.6153792,45.9271442 27.6170213,45.5304255 L27.6170213,45.5304255 L27.6170213,45.5304255 Z M28.6401064,45.3232979 L28.6401064,45.7438298 L28.056383,45.8191489 L28.0187234,45.8568085 C28.0187234,45.957234 27.9685106,46.0576596 27.9371277,46.1643617 L27.9371277,46.2208511 L28.0689362,46.3338298 L28.3764894,46.5911702 L28.1881915,46.9175532 L28.1317021,46.9175532 L27.6421277,46.7355319 L27.5730851,46.7355319 L27.3596809,46.9552128 L27.3596809,47.0242553 C27.4224468,47.1874468 27.4789362,47.3506383 27.5417021,47.5201064 L27.5417021,47.5640426 L27.202766,47.7648936 L27.1588298,47.7146809 L26.8387234,47.3318085 L26.7885106,47.3318085 L26.4684043,47.4196809 L26.4684043,47.4196809 L26.3679787,47.9908511 L25.897234,47.9908511 L25.7968085,47.4196809 L25.7340426,47.432234 L25.4264894,47.3506383 L25.37,47.3506383 L25.2570213,47.4887234 L25.0059574,47.79 L24.6795745,47.6017021 L24.6795745,47.5452128 L24.8678723,47.0744681 L24.8678723,47.0117021 L24.6481915,46.7920213 L24.5854255,46.7920213 L24.0895745,46.9740426 L24.0330851,46.9740426 L23.8510638,46.5974468 L23.8510638,46.5597872 L24.2339362,46.2396809 L24.2339362,46.1769149 C24.2339362,46.0764894 24.1774468,45.9760638 24.1523404,45.8693617 L24.1648936,45.8191489 L23.6,45.7187234 L23.6,45.3170213 L24.1648936,45.1914894 L24.2025532,45.1914894 C24.2025532,45.0910638 24.252766,44.9906383 24.2841489,44.8839362 L24.2841489,44.8274468 L24.1021277,44.6768085 L23.8510638,44.4508511 L24.0393617,44.1244681 L24.0958511,44.1244681 L24.5917021,44.3064894 L24.6544681,44.3064894 C24.7297872,44.2311702 24.7988298,44.1558511 24.8741489,44.0868085 L24.8741489,44.0240426 L24.6921277,43.5281915 L24.6921277,43.4465957 L25.0310638,43.2457447 L25.106383,43.3085106 L25.4264894,43.691383 L25.4892553,43.691383 L25.7968085,43.6097872 L25.8344681,43.5721277 C25.8344681,43.3838298 25.897234,43.1955319 25.9348936,43.007234 L26.3554255,43.007234 C26.3868085,43.2018085 26.4181915,43.3901064 26.4558511,43.5784043 L26.4935106,43.6097872 L26.8010638,43.691383 L26.8575532,43.691383 L27.1525532,43.3085106 L27.1902128,43.2708511 L27.5165957,43.4591489 L27.5165957,43.5156383 C27.4538298,43.6788298 27.3973404,43.8482979 27.3345745,44.0114894 L27.3345745,44.0742553 L27.5479787,44.2876596 L27.6232979,44.2876596 L28.1128723,44.1056383 L28.1568085,44.1056383 L28.3576596,44.4445745 L28.3137234,44.482234 L27.9245745,44.808617 L27.9245745,44.871383 C27.9245745,44.9718085 27.9810638,45.072234 28.0061702,45.1726596 L28.056383,45.1914894 L28.6212766,45.2919149 L28.6401064,45.3232979 Z"/>
    <path fill="#100F0D" d="M81.5957447,81.1187234 C81.5957346,80.5371761 81.1249027,80.0654228 80.5433567,80.064276 C79.96181,80.0631293 79.4891208,80.533021 79.4868167,81.1145639 C79.4845125,81.6961068 79.9534627,82.1697299 80.535,82.1731915 C80.8157484,82.1748629 81.0855717,82.0645053 81.2846822,81.8665729 C81.4837928,81.6686404 81.5957497,81.3994768 81.5957447,81.1187234 L81.5957447,81.1187234 L81.5957447,81.1187234 Z M82.3238298,80.9680851 L82.3238298,81.2630851 L81.9221277,81.3321277 L81.9221277,81.3321277 C81.9221277,81.4074468 81.8844681,81.4764894 81.8656383,81.5518085 L81.8656383,81.5957447 L81.9597872,81.6773404 L82.1794681,81.8593617 L82.0476596,82.0915957 L82.0037234,82.0915957 L81.6585106,81.9660638 L81.6082979,81.9660638 L81.4576596,82.1167021 L81.4576596,82.1669149 L81.5894681,82.5184043 L81.5894681,82.5497872 L81.3446809,82.6941489 L81.3446809,82.6564894 L81.1124468,82.3803191 L81.0747872,82.3803191 L80.8488298,82.4430851 L80.8488298,82.4430851 C80.8488298,82.5748936 80.798617,82.7129787 80.7735106,82.8510638 L80.3404255,82.8510638 L80.271383,82.4493617 L80.271383,82.4493617 L80.0517021,82.3928723 L80.0140426,82.3928723 L79.9324468,82.4870213 L79.7504255,82.7004255 L79.5181915,82.568617 L79.5181915,82.5246809 L79.65,82.1731915 L79.65,82.1292553 L79.4930851,81.9723404 L79.4491489,81.9723404 L79.0976596,82.1041489 L79.0662766,82.1041489 L78.9219149,81.8593617 L78.9595745,81.8593617 L79.2294681,81.6334043 L79.2294681,81.5894681 L79.1729787,81.3697872 L79.1729787,81.3697872 L78.7712766,81.3007447 L78.7712766,80.9680851 L79.1729787,80.8990426 L79.1729787,80.8990426 L79.2294681,80.6793617 L79.2294681,80.6417021 L79.0976596,80.535 L78.9156383,80.3843617 L79.0474468,80.1521277 L79.091383,80.1521277 L79.4428723,80.2839362 L79.4868085,80.2839362 L79.6437234,80.1270213 L79.6437234,80.0265957 L79.5119149,79.6751064 L79.5119149,79.6437234 L79.7567021,79.4993617 L79.7880851,79.5370213 L80.0140426,79.8131915 L80.0579787,79.8131915 L80.2776596,79.7567021 L80.2776596,79.7567021 C80.2776596,79.6248936 80.3215957,79.4868085 80.3467021,79.355 L80.6479787,79.355 C80.6479787,79.4930851 80.6919149,79.6248936 80.7232979,79.7629787 L80.7232979,79.7629787 L80.9429787,79.8194681 L80.9869149,79.8194681 L81.2191489,79.5370213 L81.2191489,79.5370213 L81.451383,79.6688298 L81.451383,79.712766 L81.3195745,80.0642553 L81.3195745,80.1081915 L81.4702128,80.2588298 L81.5204255,80.2588298 L81.8656383,80.1332979 L81.8970213,80.1332979 L82.041383,80.3780851 L82.01,80.3780851 L81.7338298,80.6103191 L81.7338298,80.6542553 C81.7338298,80.7232979 81.7714894,80.7923404 81.7903191,80.8676596 L81.8217021,80.8676596 L82.2234043,80.9367021 L82.3238298,80.9680851 Z"/>
    <path fill="#3DBA6A" d="M37.697234,53.7904255 C37.6972279,53.2643559 37.3799911,52.7902081 36.8937216,52.5894813 C36.4074522,52.3887546 35.8481303,52.5010687 35.4770447,52.8739556 C35.1059591,53.2468426 34.996355,53.8067018 35.1994341,54.2919935 C35.4025133,54.7772853 35.8781919,55.0922222 36.4042553,55.0896809 C37.1218142,55.0896809 37.7035106,54.5079844 37.7035106,53.7904255 L37.7035106,53.7904255 L37.697234,53.7904255 Z M38.5885106,53.6084043 L38.5885106,53.9787234 L38.0989362,54.0665957 L38.0612766,54.0979787 L37.992234,54.3678723 L37.992234,54.4180851 L38.1052128,54.512234 L38.3751064,54.7381915 L38.2119149,55.0269149 L38.1617021,55.0269149 L37.7348936,54.87 L37.6784043,54.87 L37.4901064,55.0582979 L37.4901064,55.1210638 L37.6595745,55.5667021 L37.6595745,55.6043617 L37.3645745,55.7801064 L37.3269149,55.7361702 L37.0319149,55.397234 L36.9879787,55.397234 L36.7118085,55.4725532 L36.7118085,55.4725532 L36.6239362,55.9684043 L36.2159574,55.9684043 L36.1280851,55.4725532 L36.1280851,55.4411702 L35.8581915,55.3658511 L35.8079787,55.3658511 L35.7138298,55.4851064 L35.4941489,55.7487234 L35.1489362,55.6169149 L35.1489362,55.5667021 L35.3058511,55.133617 L35.3058511,55.0834043 L35.1112766,54.8888298 L35.0610638,54.8888298 L34.6279787,55.0457447 L34.5840426,55.0457447 L34.4082979,54.7507447 L34.452234,54.7130851 L34.7848936,54.4306383 L34.7848936,54.3804255 C34.7848936,54.2925532 34.7346809,54.1984043 34.7095745,54.1105319 L34.7095745,54.0791489 L34.2074468,53.9787234 L34.2074468,53.6084043 L34.7032979,53.5205319 L34.7032979,53.4891489 C34.7032979,53.4012766 34.747234,53.3071277 34.778617,53.2192553 L34.778617,53.1690426 L34.6154255,53.037234 L34.3957447,52.8489362 L34.5589362,52.5602128 L34.6091489,52.5602128 L35.0610638,52.7234043 L35.1112766,52.7234043 L35.3058511,52.5288298 L35.3058511,52.4723404 L35.1489362,52.0141489 L35.1489362,51.9764894 L35.4439362,51.8007447 L35.4815957,51.8446809 L35.7765957,52.183617 L35.8268085,52.183617 L36.0967021,52.1145745 L36.0967021,52.0831915 L36.1845745,51.5873404 L36.548617,51.5873404 L36.6678723,52.0957447 L36.6678723,52.0957447 L36.937766,52.1647872 L36.9879787,52.1647872 L37.2767021,51.8195745 L37.2767021,51.7819149 L37.5591489,51.9451064 L37.5591489,51.9953191 L37.402234,52.4284043 L37.402234,52.4848936 L37.6595745,52.7234043 L37.7223404,52.7234043 L38.1491489,52.5664894 L38.1868085,52.5664894 L38.3625532,52.8614894 L38.3248936,52.8928723 L37.9859574,53.1753191 L37.9859574,53.2318085 C37.9859574,53.3196809 38.0361702,53.4075532 38.055,53.4891489 L38.0926596,53.5268085 L38.582234,53.6146809 L38.5885106,53.6084043 Z"/>
    <path fill="#ED1D24" d="M88.8514894,40.8982979 C88.8514781,40.3618148 88.4171778,39.9265943 87.8806958,39.925448 C87.3442139,39.9243017 86.9080576,40.3576624 86.9057535,40.8941404 C86.90345,41.4306185 87.3358685,41.867709 87.8723404,41.8711702 C88.1314477,41.8728419 88.3805175,41.7710816 88.5643263,41.5884512 C88.7481345,41.4058207 88.851495,41.1574109 88.8514894,40.8982979 L88.8514894,40.8982979 L88.8514894,40.8982979 Z M89.5230851,40.7602128 L89.5230851,41.036383 L89.152766,41.0991489 L89.152766,41.0991489 L89.1025532,41.3 L89.1025532,41.362766 L89.1715957,41.4255319 L89.3724468,41.595 L89.2469149,41.8084043 L89.2092553,41.8084043 L88.8891489,41.6891489 L88.8452128,41.6891489 L88.7008511,41.827234 L88.7008511,41.8711702 L88.8201064,42.1975532 L88.8201064,42.1975532 L88.6004255,42.3293617 L88.6004255,42.2979787 L88.3870213,42.0469149 L88.3556383,42.0469149 L88.1485106,42.1034043 L88.1485106,42.1034043 L88.0857447,42.48 L87.8095745,42.48 L87.7468085,42.1034043 L87.7468085,42.1034043 L87.5459574,42.0531915 L87.5082979,42.0531915 L87.4329787,42.1410638 L87.2697872,42.3419149 L87.056383,42.216383 L87.056383,42.1787234 L87.1756383,41.8523404 L87.1756383,41.8711702 L87.0312766,41.7268085 L86.8680851,41.7268085 L86.5417021,41.8460638 L86.5417021,41.8460638 L86.4098936,41.6201064 L86.4412766,41.6201064 L86.6923404,41.4067021 L86.6923404,41.3690426 C86.6923404,41.3 86.6546809,41.237234 86.6358511,41.1681915 L86.6358511,41.1681915 L86.2592553,41.1054255 L86.2592553,40.7602128 L86.6358511,40.6974468 L86.6358511,40.6974468 L86.6923404,40.4965957 L86.6923404,40.4589362 L86.5730851,40.3585106 L86.3847872,40.1702128 L86.5103191,39.9568085 L86.5479787,39.9568085 L86.8743617,40.0760638 L86.9120213,40.0760638 L87.056383,39.9317021 L87.056383,39.887766 L86.9434043,39.5425532 L86.9434043,39.5425532 L87.1630851,39.4107447 L87.1630851,39.4421277 L87.3764894,39.6931915 L87.4141489,39.6931915 L87.615,39.6367021 L87.615,39.6367021 C87.615,39.5111702 87.6589362,39.3856383 87.677766,39.2601064 L87.9539362,39.2601064 L88.0167021,39.6367021 L88.0167021,39.6367021 L88.2175532,39.6931915 L88.2552128,39.6931915 L88.4748936,39.4358511 L88.4748936,39.4358511 L88.6882979,39.561383 L88.6882979,39.5990426 L88.5690426,39.9254255 L88.5690426,39.9693617 L88.7071277,40.1074468 L88.7573404,40.1074468 L89.0774468,39.9881915 L89.0774468,39.9881915 L89.3724468,40.1702128 L89.3724468,40.1702128 L89.1151064,40.383617 L89.1151064,40.4275532 C89.1151064,40.4903191 89.152766,40.5593617 89.1715957,40.6221277 L89.1715957,40.6221277 L89.5419149,40.6848936 L89.5230851,40.7602128 Z"/>
  </g>
</svg>
