<?xml version="1.0" encoding="iso-8859-1"?>
<!-- Generator: Adobe Illustrator 19.0.0, SVG Export Plug-In . SVG Version: 6.00 Build 0)  -->
<svg xmlns="http://www.w3.org/2000/svg" xmlns:xlink="http://www.w3.org/1999/xlink" version="1.1" id="Capa_1" x="0px" y="0px" viewBox="0 0 512 512" style="enable-background:new 0 0 512 512;" xml:space="preserve" width="512px" height="512px">
<g>
	<g>
		<path d="M256,300c-8.271,0-15-6.729-15-15s6.729-15,15-15s15,6.729,15,15c0,8.284,6.716,15,15,15s15-6.716,15-15    c0-19.555-12.541-36.228-30-42.42V225c0-8.284-6.716-15-15-15s-15,6.716-15,15v17.58c-17.459,6.192-30,22.865-30,42.42    c0,24.813,20.187,45,45,45c8.271,0,15,6.729,15,15s-6.729,15-15,15s-15-6.729-15-15c0-8.284-6.716-15-15-15s-15,6.716-15,15    c0,19.555,12.541,36.228,30,42.42V405c0,8.284,6.716,15,15,15s15-6.716,15-15v-17.58c17.459-6.192,30-22.865,30-42.42    C301,320.187,280.813,300,256,300z" fill="#FFFFFF"/>
	</g>
</g>
<g>
	<g>
		<path d="M496.394,256.992c2.805-2.803,5.278-6.011,7.336-9.586c8.171-14.188,8.148-31.104-0.061-45.249    C465.447,136.286,402.381,89.161,330.174,69.789C330.708,66.558,331,63.283,331,60c0-33.084-26.916-60-60-60    c-10.917,0-21.152,2.945-29.981,8.061C231.959,2.82,221.633,0,211,0c-33.084,0-60,26.916-60,60c0,6.485,1.021,12.802,2.996,18.799    C93.547,101.814,41.553,144.902,8.33,202.157c-8.209,14.146-8.231,31.062-0.061,45.25c2.059,3.575,4.531,6.783,7.337,9.585    C5.251,285.112,0,314.659,0,345c0,62.184,22.682,111.449,79.188,139.172C129.167,508.694,196.614,512,256,512    s126.833-3.306,176.813-27.828C489.315,456.45,512,407.188,512,345C512,314.659,506.749,285.111,496.394,256.992z M271,30    c17.765,0,31.89,15.497,29.796,33.542C286.098,61.21,271.127,60,256,60c-5.016,0-10.013,0.137-14.991,0.398    C241.007,60.266,241,60.133,241,60C241,43.458,254.458,30,271,30z M211,30c2.56,0,5.083,0.333,7.518,0.962    c-5.478,9.86-8.08,21.016-7.402,32.594c-9.649,1.534-19.18,3.553-28.557,6.042C181.53,66.542,181,63.315,181,60    C181,43.458,194.458,30,211,30z M34.277,217.214C79.81,138.746,164.77,90,256,90s176.19,48.746,221.723,127.214    c3.976,6.851,1.332,12.927,0.011,15.221c-5.63,9.778-19.67,10.728-26.489-0.903C410.914,162.737,336.101,120,256,120    S101.086,162.737,60.757,231.531c-6.827,11.642-20.867,10.67-26.49,0.904C32.945,230.141,30.302,224.065,34.277,217.214z     M421.001,456.445C381.953,476.302,325.572,482,256,482c-70.768,0-127.888-5.896-166.999-26.592C51,435.3,30,401.219,30,345    c0-25.914,4.342-51.159,12.893-75.233c18.33,1.751,34.651-7.554,43.743-23.063C121.604,187.055,186.501,150,256,150    s134.396,37.055,169.364,96.705c9.05,15.437,25.334,24.82,43.742,23.062C477.658,293.841,482,319.086,482,345    C482,402.197,460.263,436.478,421.001,456.445z" fill="#FFFFFF"/>
	</g>
</g>
<g>
</g>
<g>
</g>
<g>
</g>
<g>
</g>
<g>
</g>
<g>
</g>
<g>
</g>
<g>
</g>
<g>
</g>
<g>
</g>
<g>
</g>
<g>
</g>
<g>
</g>
<g>
</g>
<g>
</g>
</svg>
