<svg id="Layer_1" data-name="Layer 1" xmlns="http://www.w3.org/2000/svg" xmlns:xlink="http://www.w3.org/1999/xlink" viewBox="0 0 870.17 1008.25"><defs><style>.cls-1{fill:#fff;}.cls-2{fill:#156db3;}.cls-3{fill:url(#linear-gradient);}.cls-4{fill:#942381;}.cls-5{fill:url(#linear-gradient-2);}.cls-6{fill:url(#linear-gradient-3);}.cls-7{fill:url(#linear-gradient-4);}.cls-8{fill:url(#linear-gradient-5);}.cls-9{fill:url(#linear-gradient-6);}.cls-10{fill:url(#linear-gradient-7);}.cls-11{fill:url(#linear-gradient-8);}.cls-12{fill:#3ea9e0;}.cls-13{fill:url(#linear-gradient-9);}.cls-14{fill:url(#linear-gradient-10);}.cls-15{fill:#e61771;}.cls-16{fill:url(#linear-gradient-11);}.cls-17{fill:url(#linear-gradient-12);}.cls-18{fill:url(#linear-gradient-13);}.cls-19{fill:url(#linear-gradient-14);}.cls-20{fill:url(#linear-gradient-15);}</style><linearGradient id="linear-gradient" x1="604.6" y1="65.16" x2="241.36" y2="694.3" gradientUnits="userSpaceOnUse"><stop offset="0" stop-color="#fff" stop-opacity="0.6"/><stop offset="0.33" stop-color="#fff" stop-opacity="0.38"/><stop offset="0.79" stop-color="#fff" stop-opacity="0.11"/><stop offset="1" stop-color="#fff" stop-opacity="0"/></linearGradient><linearGradient id="linear-gradient-2" x1="721.54" y1="132.68" x2="358.31" y2="761.82" xlink:href="#linear-gradient"/><linearGradient id="linear-gradient-3" x1="524.94" y1="19.17" x2="161.71" y2="648.31" xlink:href="#linear-gradient"/><linearGradient id="linear-gradient-4" x1="630.4" y1="80.05" x2="267.16" y2="709.19" xlink:href="#linear-gradient"/><linearGradient id="linear-gradient-5" x1="751.36" y1="149.89" x2="388.12" y2="779.03" xlink:href="#linear-gradient"/><linearGradient id="linear-gradient-6" x1="635.55" y1="83.03" x2="272.32" y2="712.17" xlink:href="#linear-gradient"/><linearGradient id="linear-gradient-7" x1="526.65" y1="20.16" x2="163.42" y2="649.3" xlink:href="#linear-gradient"/><linearGradient id="linear-gradient-8" x1="755.76" y1="152.43" x2="392.53" y2="781.57" xlink:href="#linear-gradient"/><linearGradient id="linear-gradient-9" x1="479.46" y1="-7.09" x2="116.22" y2="622.05" xlink:href="#linear-gradient"/><linearGradient id="linear-gradient-10" x1="482.76" y1="-5.18" x2="119.52" y2="623.95" xlink:href="#linear-gradient"/><linearGradient id="linear-gradient-11" x1="728.94" y1="136.95" x2="365.71" y2="766.09" xlink:href="#linear-gradient"/><linearGradient id="linear-gradient-12" x1="604.23" y1="64.95" x2="241" y2="694.09" xlink:href="#linear-gradient"/><linearGradient id="linear-gradient-13" x1="633.73" y1="81.98" x2="270.49" y2="711.12" xlink:href="#linear-gradient"/><linearGradient id="linear-gradient-14" x1="574.64" y1="47.86" x2="211.41" y2="677" xlink:href="#linear-gradient"/><linearGradient id="linear-gradient-15" x1="725.24" y1="134.81" x2="362.01" y2="763.95" xlink:href="#linear-gradient"/></defs><title>Story logo (different forms)</title><path class="cls-1" d="M118.69,884.13a37.9,37.9,0,0,1-12.63-28.78h8.28a31.22,31.22,0,0,0,10.15,23.39,34,34,0,0,0,24.42,9.73q15.54,0,26.71-8.28,11-8.28,11-20.08,0-10.14-9.73-17-9.53-6.82-25.67-8.28-19.66-1.65-31.47-11.18t-11.8-23.39q0-13.66,12-23.39t29-9.73q18.22,0,31.27,10.14Q193,787.44,193,801.73h-8.28q0-11-10.56-18.84Q163.82,775,148.91,775q-13.46,0-23.18,7.46-9.53,7.24-9.53,17.8,0,10.35,9.94,17.39,10.14,7,26.71,8.49,19,1.67,30.64,11,11.38,9.32,11.39,23,0,14.91-13.46,25.46t-32.51,10.56Q131.1,896.13,118.69,884.13Z"/><path class="cls-1" d="M276.23,893V778.33h-42v-8.07H327v8.07H284.51V893Z"/><path class="cls-1" d="M382.64,877.29q-14.91-17.17-14.9-45.54,0-29.4,14.9-47t39.75-17.59q24.84,0,39.75,17.59t14.9,47q0,28.37-14.9,45.54t-39.75,17.19Q397.55,894.48,382.64,877.29Zm73.5-5.59q12.62-14.9,12.62-40,0-25.66-12.62-41.2T422.39,775q-21.12,0-33.75,15.53T376,831.75q0,25.05,12.62,40,12.63,15.12,33.75,15.12T456.14,871.7Z"/><path class="cls-1" d="M530.25,893V770.26h58.59a28.42,28.42,0,0,1,21.53,9.53,31.72,31.72,0,0,1,8.9,22.77q0,11.81-5.38,20.49-5.6,8.7-13.87,10.15,7.65,2.07,12.42,13t4.76,26.5q0,8.7.41,13Q618,891,619.27,893H611c-1.38-1.66-2.28-4.69-2.69-9.11l-.62-17.6q0-12.42-6-21.32-5.79-8.7-14.28-8.7H538.53V893Zm57.14-64.39a22.3,22.3,0,0,0,16.77-7.45,25,25,0,0,0,6.83-17.8,25.48,25.48,0,0,0-6.83-17.81,22.61,22.61,0,0,0-16.77-7.25H538.53v50.31Z"/><path class="cls-1" d="M709.11,893V839.61l-47.2-69.35h11.8l40,59.83,38.71-59.83h11.8l-45.54,69.35V893Z"/><path class="cls-2" d="M463.23,222.35q20.37,0,42.09,8.49T548.78,257l50.05-98.19-140,63.67C460.3,222.39,461.75,222.35,463.23,222.35Z"/><path class="cls-3" d="M463.23,222.35q20.37,0,42.09,8.49T548.78,257l50.05-98.19-140,63.67C460.3,222.39,461.75,222.35,463.23,222.35Z"/><path class="cls-4" d="M592.57,383.6q-16.17-19.43-42.33-34.68a4.72,4.72,0,0,1-.54,1.51L488.77,456.79l119.85-48.06A120.24,120.24,0,0,0,592.57,383.6Z"/><path class="cls-5" d="M592.57,383.6q-16.17-19.43-42.33-34.68a4.72,4.72,0,0,1-.54,1.51L488.77,456.79l119.85-48.06A120.24,120.24,0,0,0,592.57,383.6Z"/><path class="cls-2" d="M277.53,342.86q11.88,24.79,31.23,41.07a158.71,158.71,0,0,0,44.13,26.15q6.17,2.44,12.4,4.8l66.19-104.14L271.81,327.91A103.11,103.11,0,0,0,277.53,342.86Z"/><path class="cls-6" d="M277.53,342.86q11.88,24.79,31.23,41.07a158.71,158.71,0,0,0,44.13,26.15q6.17,2.44,12.4,4.8l66.19-104.14L271.81,327.91A103.11,103.11,0,0,0,277.53,342.86Z"/><path class="cls-2" d="M440.48,441.65q15.28,6.11,24.78,13.24a54.77,54.77,0,0,1,6.26,5.43L438.73,317.15,374.47,418.24c9.56,3.45,19.22,6.75,29,9.83Q425.2,435.54,440.48,441.65Z"/><path class="cls-7" d="M440.48,441.65q15.28,6.11,24.78,13.24a54.77,54.77,0,0,1,6.26,5.43L438.73,317.15,374.47,418.24c9.56,3.45,19.22,6.75,29,9.83Q425.2,435.54,440.48,441.65Z"/><path class="cls-4" d="M491.4,466l128.9,45a209.2,209.2,0,0,0,2.48-32.7q0-34.2-10.39-60.8Z"/><path class="cls-8" d="M491.4,466l128.9,45a209.2,209.2,0,0,0,2.48-32.7q0-34.2-10.39-60.8Z"/><path class="cls-2" d="M542.35,344.55a297.74,297.74,0,0,0-45.18-19q-16.29-5.43-32.93-10.19-9.25-2.64-17.45-5.81l32.94,143.81,61.68-107.68A4.72,4.72,0,0,1,542.35,344.55Z"/><path class="cls-9" d="M542.35,344.55a297.74,297.74,0,0,0-45.18-19q-16.29-5.43-32.93-10.19-9.25-2.64-17.45-5.81l32.94,143.81,61.68-107.68A4.72,4.72,0,0,1,542.35,344.55Z"/><path class="cls-2" d="M290.85,316.26l138.29-14.87A66.53,66.53,0,0,1,413,288.89q-8.14-8.82-8.15-22.42a38.31,38.31,0,0,1,4.7-19Z"/><path class="cls-10" d="M290.85,316.26l138.29-14.87A66.53,66.53,0,0,1,413,288.89q-8.14-8.82-8.15-22.42a38.31,38.31,0,0,1,4.7-19Z"/><path class="cls-4" d="M536.43,625.44a4.75,4.75,0,0,1,1.19,1.67,164.12,164.12,0,0,0,33.22-22.84,148.75,148.75,0,0,0,38.7-54.66,166.44,166.44,0,0,0,9-29.09l-133.1-46.46Z"/><path class="cls-11" d="M536.43,625.44a4.75,4.75,0,0,1,1.19,1.67,164.12,164.12,0,0,0,33.22-22.84,148.75,148.75,0,0,0,38.7-54.66,166.44,166.44,0,0,0,9-29.09l-133.1-46.46Z"/><path class="cls-12" d="M419.1,230.94,307.78,164.27l-.11-.08a154.39,154.39,0,0,0-29.46,46.95q-12.57,30.9-12.56,68.92a182.48,182.48,0,0,0,3.57,37.69Z"/><path class="cls-13" d="M419.1,230.94,307.78,164.27l-.11-.08a154.39,154.39,0,0,0-29.46,46.95q-12.57,30.9-12.56,68.92a182.48,182.48,0,0,0,3.57,37.69Z"/><path class="cls-12" d="M448.23,111.73c-1.79,0-3.59-.06-5.37-.06q-40.74,0-73.67,12.23Q337,135.84,314.57,157.19l110.62,66.27Z"/><path class="cls-14" d="M448.23,111.73c-1.79,0-3.59-.06-5.37-.06q-40.74,0-73.67,12.23Q337,135.84,314.57,157.19l110.62,66.27Z"/><path class="cls-15" d="M408,545.4l-7.45,105.83q11.87.9,23.94.9,46.85,0,83.84-12.56a209.91,209.91,0,0,0,20.06-8l-.1-.29Z"/><path class="cls-16" d="M408,545.4l-7.45,105.83q11.87.9,23.94.9,46.85,0,83.84-12.56a209.91,209.91,0,0,0,20.06-8l-.1-.29Z"/><path class="cls-15" d="M360.7,526.52q-29.19-12.88-59.06-39.38L247.46,589l143.41-52.6A155.54,155.54,0,0,1,360.7,526.52Z"/><path class="cls-17" d="M360.7,526.52q-29.19-12.88-59.06-39.38L247.46,589l143.41-52.6A155.54,155.54,0,0,1,360.7,526.52Z"/><path class="cls-15" d="M391.08,650.36l7.5-106.58L250.17,598.22Q316.14,642.4,391.08,650.36Z"/><path class="cls-18" d="M391.08,650.36l7.5-106.58L250.17,598.22Q316.14,642.4,391.08,650.36Z"/><path class="cls-12" d="M595.46,149.82a351.22,351.22,0,0,0-73.16-27.63,335.18,335.18,0,0,0-64.43-10.11,2.58,2.58,0,0,1,0,.39l-22.74,110.3Z"/><path class="cls-19" d="M595.46,149.82a351.22,351.22,0,0,0-73.16-27.63,335.18,335.18,0,0,0-64.43-10.11,2.58,2.58,0,0,1,0,.39l-22.74,110.3Z"/><path class="cls-4" d="M482.61,495.6q-1.86,16-15.65,28.89-16,14.94-48.55,14.93l-2.36,0,107.07,76.48Z"/><path class="cls-20" d="M482.61,495.6q-1.86,16-15.65,28.89-16,14.94-48.55,14.93l-2.36,0,107.07,76.48Z"/></svg>