<svg version="1" xmlns="http://www.w3.org/2000/svg" width="720" height="720" viewBox="0 0 540.000000 540.000000"><path d="M258.7.6c-.1.1-3.1.5-6.7.8-3.6.3-7.4.7-8.5 1-1.1.2-4 .7-6.5 1.1C207.7 8 172.8 24.3 152.7 43l-2.7 2.5 38.7 23.3c21.4 12.8 39.9 23.9 41.3 24.7 1.4.9 8.8 5.3 16.5 9.9l14 8.4.6-2.6c1.5-6.5 18.2-87.5 20.5-99.2.3-1.4.9-4.2 1.4-6.3l.8-3.8-12.4.2c-6.8.1-12.5.3-12.7.5zM292.6 3.4c-.9 4.6-1.1 5.6-5 24.6-2 9.6-5 23.8-6.6 31.5-1.5 7.7-4.1 19.8-5.5 27-1.5 7.1-3.3 15.6-4 18.7l-1.3 5.7 2.7-1c1.4-.6 4.9-2.1 7.6-3.4 4.6-2.1 41.7-18.9 52.5-23.7 2.5-1.1 8.7-4 13.9-6.4 5.1-2.4 9.5-4.4 9.6-4.4.2 0 5.1-2.3 11-5 5.9-2.8 10.8-5 11-5 .3 0 6.1-2.6 23-10.5 10.5-4.8 19.5-8.9 24.3-11 2.3-1 4.2-2.2 4.2-2.5 0-.9-20.4-10.1-34.4-15.5-16.8-6.5-46.5-15-59.1-16.8-1.6-.3-5.7-1-9-1.5-8.8-1.6-14.3-2.2-30.2-3.6-3.9-.3-4.1-.2-4.7 2.8zM428.5 49.6c-2.7 1.2-7.9 3.6-11.5 5.2-21 9.4-115.2 52.4-118.5 54.1l-4 2 7.6.1c22.9.1 49.6 10.4 74.7 28.8 4.1 2.9 7.5 5.2 7.6 5 .2-.2 2.2-4.1 4.6-8.8 7.8-15.6 39.3-77.4 42.2-82.9 1.5-3 2.7-5.5 2.6-5.6-.2-.2-2.5.8-5.3 2.1zM139.2 56.8C123 75 108.4 106.9 104 133.5c-3.4 20.6-3.4 55.6.1 68.7l.9 3.7 10.1-6c5.5-3.2 10.2-5.9 10.5-5.9.2 0 2.8-1.6 5.8-3.5s5.7-3.5 6-3.5c.3 0 4.9-2.6 10.3-5.9 5.4-3.2 11.6-6.8 13.8-8 2.2-1.2 4.7-2.6 5.5-3.1 1.7-1.1 45.8-26.7 53-30.7 2.5-1.4 8.1-4.7 12.5-7.3 4.4-2.6 11-6.4 14.8-8.5 3.7-2.2 6.7-4.2 6.7-4.5 0-.4-64.2-39-80.9-48.6-2-1.2-9.2-5.5-16.1-9.8-7-4.2-13-7.6-13.5-7.6-.6.1-2.5 1.7-4.3 3.8zM223.5 148c-11 6.4-36.9 21.4-57.5 33.4s-37.9 22.2-38.5 22.8c-.7.7-.7.9 0 .5.6-.3 3.7-.8 7-1.1 16.3-1.7 26.2-2.7 28.5-3.1 2.3-.3 7.1-.8 19-2 4.2-.4 9.3-1 18-2 1.9-.2 6.4-.7 10-1 3.6-.4 8.1-.8 10-1 1.9-.2 6-.7 9-1 3-.3 7.1-.7 9-1 1.9-.2 8.6-.9 14.8-1.6 6.1-.6 11.2-1.3 11.2-1.4 0-.1-2.5-1.9-5.5-4-7.9-5.4-14-12.6-16.1-18.8-2.3-6.8-2.3-17.7-.1-24.6 1-2.9 1.7-5.4 1.5-5.5-.2-.2-9.3 5-20.3 11.4zM285 210.2c3.4 15.2 5.1 22.4 15.1 66.3 4.5 19.2 8.3 36 8.5 37.2.8 4.3 6.2 26.5 6.6 26.8.2.3 28.1-47.9 53.9-93.4 1.5-2.5 3.8-6.6 5.3-9.1 1.4-2.5 2.6-4.8 2.6-5.2 0-.9-14.9-7.9-27-12.8-5.2-2.1-17.4-6.3-27-9.3-24-7.6-38.3-12.1-39.6-12.5-.7-.2-.1 4.4 1.6 12zM259.9 199.5c-.3.2-3.8.7-7.9 1-4.1.3-8.6.8-10 1-1.4.2-5.4.6-9 1-3.6.4-7.8.9-9.5 1.1-1.6.2-5.9.6-9.5.9-3.6.3-7.6.8-9 1.1-1.4.2-5.6.7-9.5.9-3.8.3-8.1.8-9.5 1-3.3.5-11.1 1.4-18 2-3 .3-7.1.7-9 1-6 .7-13.3 1.5-19 2-3 .3-9.5 1-14.5 1.6-10.9 1.2-14.4 1.6-16.7 1.8-1.6.1-1.6.7.8 6.8 11 29.4 33.5 53.3 64.9 69.1 6.1 3.1 25 11.2 26.1 11.2.2 0 4.6-6.8 32.6-51 13.5-21.2 26.6-41.8 29.1-45.8l4.7-7.2h-3.3c-1.9 0-3.6.2-3.8.5zM263.6 221.8c-5.5 8.6-12.7 20-16.1 25.2-3.3 5.2-9.9 15.5-14.5 22.9-4.7 7.4-11.7 18.4-15.6 24.5-4 6.1-6.8 11.4-6.5 11.9.4.4 9.3 3.6 19.7 7.1 21.5 7.3 45.2 16.1 53.7 20 3.1 1.5 9.3 5.1 13.8 8.1 4.4 3 8.1 5.5 8.4 5.5.2 0-.1-1.6-.7-3.6-.5-2-1.1-4.4-1.3-5.3-1.1-5.2-17-75.1-19-83.6-.9-3.9-1.9-7.9-2.1-9-.2-1.1-1.2-5.6-2.3-10-1.1-4.4-3-12.8-4.3-18.8-1.2-5.9-2.5-10.7-2.8-10.7-.3 0-5 7.1-10.4 15.8zM376.9 252.3c-4.7 8.4-14.1 24.9-20.9 36.7-6.8 11.8-13.3 23.3-14.6 25.5-1.2 2.2-5.4 9.6-9.3 16.3-7.5 13.1-8.2 14.9-5.3 13.3.9-.5 24.9-10.2 53.2-21.6 28.3-11.3 52.9-21.2 54.5-21.9 1.7-.7 4.5-1.9 6.3-2.6l3.2-1.3-3.5-6.4c-10.6-19.2-30-38.6-50.5-50.6l-4.5-2.6-8.6 15.2zM406 322.1c-21.7 8.8-40.2 16.3-41 16.6-11.2 4.4-18.8 7.5-20.2 8.3-1 .6-2.3 1-3 1-.7 0-2.5.6-4 1.4-1.4.8-4.2 1.9-6.2 2.6-2 .6-3.6 1.5-3.6 1.8 0 .4 2.1 1.5 4.8 2.4 25.1 8.8 73.1 25.6 91.2 31.8 12.4 4.3 24.5 8.5 26.9 9.4 2.4.9 4.5 1.6 4.6 1.6.8 0 1.8-14.3 2.1-30 .1-12.5-.2-21.8-1.2-28.5-2.6-17.1-7.5-34.6-9.8-34.4-.6 0-18.9 7.2-40.6 16zM321 362.5c0 .2 4.7 14.2 10.4 31.2 5.7 16.9 17 50.6 25.1 74.8 8.1 24.2 15.2 44.6 15.8 45.3 1.2 1.5 8.2-2.3 21.2-11.6 28.9-20.7 48.4-49.4 58.4-85.9 1.1-4.1 1.6-7.5 1.1-7.8-1.1-.7 2.8.7-63.5-22.5-64.5-22.6-68.5-24-68.5-23.5zM136.2 376.6c-7.3 14.1-14 26.8-16 30.4-4.5 8.3-8.9 16.4-14.7 27.5-10.7 20.4-14.7 28-18.7 35.2l-3.9 7.3 9.3-3.4c5.1-1.9 18.1-6.6 28.8-10.6 10.7-3.9 24.2-8.9 30-11 22.5-8.1 66.6-24.2 68.5-24.9 1.1-.5 3.1-1.3 4.4-1.8 2.2-.9 1.8-1.1-4.4-2.7-15.6-3.9-35.5-13.2-52.4-24.4-8.3-5.5-28-20.6-29.2-22.5-.4-.5-1.1-.1-1.7.9zM317.7 385.6c-.4.4-.7 1.6-.7 2.7 0 3.9-6.3 14.9-12 21.1-7.8 8.3-19.3 14.4-30.6 16-2.2.4-5 .8-6.2 1.1-1.2.2-5.2.5-8.8.6-3.5.1-6.3.6-6.2 1 .2.6 38.5 28.3 62.8 45.4 10.8 7.6 34.6 24.7 36.2 26 2 1.6 5.8 3.7 5.8 3.2 0-.2-8.7-26.2-19.3-57.8-10.7-31.6-19.6-58-19.8-58.7-.2-.7-.8-1-1.2-.6zM232 432.7c-5.7 1.9-30.6 10.9-35.5 12.8-3.3 1.2-12.5 4.6-20.5 7.5-8 2.8-15.4 5.6-16.5 6.1-1.7.7-54.5 20-67.5 24.6-2.5.9-4.8 1.9-5.2 2.3-2 1.6 40.6 24.9 58.3 31.8 8.3 3.4 22.9 8.3 29.9 10.3 2.5.7 5 1.4 5.5 1.5 8 2.3 16.6 4.1 30.5 6.5 13.5 2.2 15.7 2.3 15.7.6 0-2.2 1.4-23.1 1.8-27.7.5-5.9 1.4-18.6 2-28 .3-4.1.7-10 1-13 .2-3 .7-9.3 1-14 .3-4.7.8-11.5 1.1-15.3.3-3.7.4-6.7.2-6.6-.2 0-1 .3-1.8.6zM242.9 438.7c-.1 2.7-.3 6.4-.4 8.3-.9 11.2-1.5 20.5-2 28-.3 4.7-.8 10.5-1 13-.2 2.5-.7 9-1 14.5-.4 5.5-.8 12.2-1 15-.2 2.7-.7 8.7-1 13.1l-.6 8.2 2.8.5c3.5.7 50.3.1 52.3-.6.8-.3 4-.8 7-1.1 17.6-1.8 40.6-7.7 57.8-14.8 3.9-1.6 7.2-3.3 7.2-3.6-.1-.6-16.8-12.7-38.1-27.7-3.1-2.2-18.9-13.5-35-25-16.1-11.6-31.8-22.8-34.8-24.9-3.1-2.1-6.7-4.7-8-5.7-3.5-2.8-4.1-2.4-4.2 2.8z"/></svg>